<svg xmlns="http://www.w3.org/2000/svg" viewBox="0 0 888 600">
  <path fill="#EBCB8B" stroke="#4C566A" stroke-width="5" stroke-linecap="round" stroke-linejoin="round" stroke-miterlimit="1.5" d="M531.33 336.82s-23.355 7.627-34.822-1.758-5.854-20.915 4.957-17.575 21.26 5.542 29.027.841c7.77-4.705 15.623 13.824.838 18.492z"/>
  <path d="M447.963 158.601s-11.505-11.985-15.82 17.254m-23.968-20.133s11.025-11.504 14.86 18.695m-3.71-29.908s14.073-7.471 8.26 22.408" fill="none" stroke="#88C0D0" stroke-width="4" stroke-linecap="round" stroke-linejoin="round" stroke-miterlimit="1.5"/>
  <path d="M510.963 408.416s-12.525-21.137-27.336-21.645c-14.809-.51-18.191 11.857-7.863 16.477 10.326 4.619 19.635 9.855 22.369 18.516 2.738 8.66 20.863-.086 12.83-13.348zm-59.774 45.876s-21.152-12.495-21.685-27.302c-.53-14.811 11.833-18.211 16.468-7.891 4.633 10.322 9.883 19.623 18.547 22.348 8.667 2.723-.058 20.861-13.33 12.845z" fill="#EBCB8B" stroke="#4C566A" stroke-width="5" stroke-linecap="round" stroke-linejoin="round" stroke-miterlimit="1.5"/>
  <path fill="#88C0D0" d="M347.367 232.458c-.452-2.713-6-6.858-8.305-7.796-28.047-11.425-18.215 20.739-1.888 19.465"/>
  <path fill="#4C566A" d="M329.007 218.905l.127.002.125.002.127.003.13.005.127.006.127.007.13.005.13.01.13.008.132.01.13.011.133.012.132.013.132.014.135.014.132.016.135.015.138.018.135.018.137.021.138.02.138.02.137.02.14.023.137.023.14.023.143.025.14.025.143.027.142.027.143.027.145.031.145.029.143.029.145.033.147.035.147.031.147.035.148.035.15.038.15.038.15.037.15.039.15.041.155.039.15.043.155.043.155.045.155.045.155.045.155.047.157.048.158.048.158.049.157.051.16.051.163.055.16.052.163.053.163.056.163.057.163.058.165.058.167.057.165.061.165.063.17.061.168.064.17.063.17.064.167.066.172.066.173.068.172.068.172.068.183.075.08.032.085.035.085.038.085.04.087.039.085.038.083.04.087.043.083.043.087.044.083.042.085.043.087.047.083.047.085.044.092.053.167.095.175.1.175.105.175.107.18.109.178.113.18.115.182.119.183.123.185.125.183.127.185.131.188.133.188.135.185.138.188.14.188.143.188.145.188.147.188.149.185.15.185.155.095.078.092.077.093.08.092.077.092.08.09.081.092.079.09.083.093.082.09.08.09.082.09.086.087.082.09.082.09.085.087.085.087.086.088.087.085.085.087.088.085.085.085.087.087.09.083.088.083.09.085.09.08.088.08.09.082.093.083.093.08.092.078.094.078.092.078.096.077.094.075.096.075.095.078.1.073.098.072.099.07.097.072.1.07.103.07.103.067.103.065.103.07.108.065.106.062.107.063.108.063.109.06.113.06.111.06.12.055.112.055.117.055.128.05.12.05.125.05.13.044.128.045.133.042.137.04.136.035.142.035.148.03.145.02.105.028.182.018.186.007.186-.005.185-.013.183-.025.185-.033.183-.045.178-.055.178-.063.174-.075.17-.083.166-.093.16-.1.154-.11.148-.117.145-.127.135-.133.128-.14.122-.147.112-.153.105-.158.095-.162.088-.17.078-.17.066-.177.057-.178.049-.182.037-.183.029-.183.018-.185.008-.185-.005-.186-.013-.185-.025-.18-.031-.18-.045-.177-.056-.175-.063-.168-.075-.167-.082-.16-.092-.155-.104-.147-.107-.143-.12-.137-.125-.127-.132-.123-.141-.112-.147-.103-.152-.098-.157-.085-.165-.078-.167-.07-.173-.057-.176-.047-.177-.035-.166-.002-.006-.008-.018-.005-.014-.01-.02-.013-.025-.01-.02-.012-.027-.018-.031-.018-.029-.018-.033-.022-.035-.023-.037-.022-.035-.025-.039-.03-.045-.027-.043-.03-.043-.033-.045-.035-.047-.035-.047-.038-.051-.038-.049-.04-.051-.041-.053-.044-.053-.043-.053-.047-.055-.047-.055-.045-.055-.05-.058-.05-.056-.05-.057-.055-.061-.053-.058-.055-.058-.058-.061-.055-.057-.06-.061-.06-.063-.057-.057-.063-.061-.06-.063-.063-.06-.065-.061-.063-.06-.064-.063-.068-.063-.065-.061-.065-.061-.067-.062-.067-.06-.07-.061-.067-.063-.07-.061-.072-.062-.067-.061-.073-.06-.072-.061-.07-.057-.145-.12-.145-.12-.145-.115-.148-.115-.147-.115-.145-.109-.148-.113-.147-.107-.145-.104-.142-.104-.145-.1-.143-.101-.14-.095-.138-.09-.135-.09-.135-.088-.13-.082-.127-.078-.123-.074-.12-.07-.115-.068-.115-.064-.048-.025-.053-.029-.052-.031-.047-.021-.047-.025-.048-.025-.042-.021-.04-.021-.04-.021-.041-.018-.035-.018-.033-.014-.03-.013-.027-.013-.028-.013-.027-.01-.147-.06-.152-.063-.153-.061-.15-.058-.15-.06-.147-.058-.148-.056-.147-.055-.145-.055-.145-.053-.145-.055-.143-.05-.143-.05-.14-.051-.14-.049-.14-.049-.138-.045-.137-.047-.135-.045-.135-.043-.135-.045-.132-.043-.133-.039-.13-.04-.13-.04-.13-.038-.13-.04-.125-.035-.127-.037-.125-.035-.125-.032-.122-.035-.123-.032-.123-.029-.12-.033-.12-.031-.118-.026-.117-.028-.118-.029-.115-.025-.112-.025-.115-.023-.113-.025-.112-.023-.11-.021-.11-.023-.107-.021-.107-.02-.107-.018-.105-.021-.105-.018-.103-.018-.103-.015-.103-.018-.1-.016-.101-.013-.097-.015-.1-.013-.095-.013-.095-.01-.095-.01-.095-.01-.093-.011-.09-.009-.093-.009-.09-.007-.087-.005-.087-.009-.087-.004-.085-.005-.085-.003-.085-.005-.08-.003-.083-.002-.08-.002h-.313l-.075.002h-.075l-.075.002-.072.003-.07.003-.07.005-.072.005-.068.002-.067.008-.065.006-.067.004-.063.008-.065.008-.063.007-.062.009-.06.006-.06.008-.06.01-.055.01-.058.011-.057.011-.055.01-.053.01-.055.012-.053.011-.05.013-.05.012-.05.011-.047.013-.047.012-.048.016-.047.012-.045.016-.042.012-.042.014-.045.014-.04.016-.04.016-.04.012-.04.016-.04.018-.035.012-.038.018-.037.016-.035.016-.035.014-.032.018-.033.016-.033.018-.032.015-.03.015-.033.018-.027.018-.033.016-.027.018-.027.014-.025.018-.03.018-.025.018-.025.018-.027.018-.022.016-.025.018-.022.018-.022.018-.025.018-.02.017-.025.021-.021.015-.02.018-.022.021-.02.018-.02.018-.02.02-.021.018-.017.018-.018.018-.018.02-.02.02-.018.021-.018.018-.017.021-.018.02-.018.022-.018.017-.012.021-.018.02-.015.02-.018.023-.015.021-.015.021-.015.022-.015.02-.015.023-.015.022-.013.022-.018.024-.012.022-.015.025-.013.022-.012.024-.015.025-.013.025-.012.027-.015.027-.012.025-.01.021-.013.031-.012.023-.013.031-.012.029-.01.025-.013.029-.012.033-.01.027-.01.027-.012.035-.01.033-.01.027-.01.035-.01.032-.01.029-.008.035-.01.032-.01.035-.007.038-.01.035-.007.038-.008.029-.007.037-.01.043-.008.037-.005.035-.008.037-.007.043-.005.04-.005.035-.005.04-.007.045-.005.039-.005.041-.003.043-.005.041-.005.045-.003.043-.002.041-.003.047-.002.047-.002.041-.002.045v.047l-.002.051v.28l.002.053.002.05v.048l.002.052.002.05.005.048.003.052.005.053.005.051.003.055.007.053.005.053.005.05.008.056.005.055.007.055.007.055.008.053.008.055.01.053.01.055.01.061.007.055.01.055.012.058.01.056.013.055.013.063.012.059.01.054.015.058.012.059.015.057.012.061.015.057.015.061.015.057.018.063.015.054.035.121.035.122.038.12.04.119.04.121.04.122.045.126.045.121.047.123.047.123.05.125.053.123.053.123.055.126.055.122.058.125.06.125.06.125.063.125.064.123.065.125.065.125.067.122.07.125.073.123.072.124.073.123.075.123.078.122.078.12.08.123.08.119.08.121.085.119.085.119.085.119.087.117.087.117.087.115.092.115.09.115.095.114.092.112.095.113.097.111.098.111.097.109.1.107.1.107.103.107.05.05.053.056.05.049.053.053.053.053.052.051.052.052.053.05.052.051.053.049.055.051.055.05.053.05.052.049.055.049.055.048.055.048.055.047.055.047.058.049.055.047.055.045.055.047.058.046.058.044.055.047.058.044.058.045.058.043.055.042.058.045.06.043.058.043.055.039.063.043.058.043.058.039.058.041.06.041.06.041.058.037.06.04.06.038.06.039.06.037.06.038.06.035.06.038.06.034.063.038.06.035.06.035.063.035.063.035.058.031.063.033.062.032.06.032.063.033.06.031.063.031.062.031.063.031.063.029.062.029.063.029.06.026.063.03.068.027.062.027.063.027.063.025.062.025.065.027.062.025.063.021.065.025.063.025.065.022.063.022.063.021.065.021.065.022.065.023.065.02.065.02.062.021.065.018.062.018.068.021.065.018.065.018.065.014.063.018.067.016.065.015.065.015.065.016.067.015.065.013.065.013.067.013.065.012.065.01.067.013.065.011.065.01.067.01.068.008.067.01.065.008.065.007.07.008.067.005.065.008.067.005.067.005.07.005.065.003.067.002.067.006.068.002h.07l.07.002h.272l.067-.002h.07l.067-.002.07-.006.07-.002.07-.006.07-.002.083-.008.185-.008h.185l.185.014.183.021.183.035.18.043.178.053.175.063.17.072.165.082.16.09.158.104.15.107.142.117.138.125.127.131.123.139.115.148.105.149.098.157.087.165.078.167.07.17.06.176.047.18.04.181.03.183.018.184.01.186-.003.186-.012.186-.022.182-.033.183-.042.181-.055.177-.063.173-.072.17-.083.168-.09.159-.1.158-.11.147-.115.145-.125.137-.132.128-.14.123-.145.114-.152.105-.158.098-.163.088-.167.076-.173.07-.175.059-.177.049-.182.041-.183.029-.183.018-.11.008-.12.01-.123.006-.12.006-.12.006-.123.006-.12.002-.12.002h-.481l-.117-.002-.118-.002-.12-.006-.12-.006-.118-.006-.117-.006-.118-.008-.117-.01-.118-.01-.118-.01-.117-.01-.115-.014-.118-.012-.117-.016-.115-.015-.115-.015-.115-.018-.115-.018-.118-.018-.112-.018-.113-.02-.117-.023-.113-.02-.112-.022-.112-.022-.113-.025-.112-.025-.113-.023-.112-.025-.11-.027-.112-.027-.11-.028-.11-.03-.11-.029-.11-.03-.11-.032-.107-.033-.11-.032-.11-.032-.107-.035-.105-.035-.107-.035-.107-.037-.108-.037-.104-.037-.105-.038-.107-.04-.102-.041-.108-.039-.103-.043-.103-.039-.105-.043-.105-.045-.103-.043-.103-.045-.1-.043-.103-.047-.103-.047-.103-.045-.098-.049-.1-.047-.103-.051-.098-.049-.097-.048-.1-.053-.097-.05-.1-.053-.095-.053-.098-.05-.097-.055-.095-.056-.095-.051-.098-.056-.095-.056-.093-.057-.095-.055-.093-.059-.095-.057-.093-.058-.095-.061-.09-.058-.092-.061-.09-.059-.093-.061-.09-.063-.09-.061-.09-.063-.09-.063-.088-.063-.087-.063-.09-.064-.087-.064-.085-.063-.088-.066-.087-.066-.087-.065-.083-.065-.087-.066-.085-.068-.083-.066-.085-.068-.083-.07-.083-.066-.085-.07-.08-.068-.083-.072-.083-.07-.08-.07-.08-.072-.08-.07-.08-.071-.08-.073-.08-.072-.075-.072-.08-.075-.078-.073-.078-.074-.078-.075-.075-.075-.075-.074-.075-.076-.078-.076-.073-.076-.078-.076-.145-.152-.145-.155-.143-.158-.143-.157-.14-.158-.14-.159-.135-.163-.135-.162-.132-.162-.132-.166-.13-.164-.127-.168-.125-.168-.125-.167-.123-.17-.12-.171-.12-.17-.118-.174-.115-.17-.112-.176-.113-.175-.11-.175-.107-.176-.108-.177-.103-.177-.102-.178-.1-.181-.1-.18-.098-.181-.095-.18-.093-.182-.09-.184-.09-.182-.081-.197-.085-.185-.083-.184-.082-.188-.078-.182-.078-.188-.075-.188-.075-.186-.07-.188-.07-.188-.065-.188-.065-.188-.063-.189-.063-.191-.058-.188-.055-.189-.055-.188-.027-.1-.025-.092-.025-.096-.025-.095-.022-.099-.025-.094-.022-.096-.022-.095-.02-.095-.022-.1-.02-.096-.021-.092-.017-.096-.02-.1-.018-.096-.018-.095-.018-.101-.017-.09-.015-.098-.015-.097-.015-.095-.015-.101-.013-.095-.013-.096-.01-.095-.012-.095-.01-.1-.013-.098-.007-.095-.01-.099-.007-.098-.007-.094-.008-.096-.005-.098-.005-.1-.005-.096-.005-.098-.002-.094-.002-.096-.002-.098v-.1l-.002-.098v-.095l.002-.098.002-.097v-.096l.005-.095.003-.097.005-.102.005-.095.007-.093.008-.102.007-.098.007-.092.01-.099.01-.098.01-.097.012-.098.013-.093.012-.097.016-.102.015-.094.015-.094.018-.098.018-.1.02-.094.018-.094.02-.094.023-.102.022-.094.022-.096.025-.095.025-.095.025-.093.027-.095.028-.098.027-.096.03-.092.033-.098.03-.092.032-.088.032-.098.038-.096.035-.092.035-.093.04-.095.038-.09.037-.09.042-.096.04-.09.045-.092.045-.093.042-.088.045-.091.05-.09.047-.086.048-.091.052-.091.05-.086.052-.088.053-.086.055-.086.055-.088.055-.082.06-.088.06-.086.06-.084.058-.08.063-.086.065-.082.063-.08.067-.082.065-.082.068-.078.067-.078.07-.078.07-.076.07-.078.072-.074.073-.076.075-.076.077-.073.075-.075.078-.07.077-.07.08-.071.078-.067.083-.07.085-.067.08-.065.083-.066.085-.066.087-.064.085-.063.087-.063.09-.063.087-.057.09-.061.09-.061.09-.055.092-.059.095-.057.092-.053.095-.055.095-.053.095-.05.095-.05.101-.05.097-.05.1-.049.097-.045.1-.044.103-.046.1-.045.1-.039.105-.043.103-.041.102-.039.105-.037.105-.038.105-.038.107-.035.105-.031.11-.035.107-.033.105-.029.11-.029.11-.031.11-.029.11-.025.112-.027.11-.025.113-.025.112-.021.112-.022.115-.022.113-.021.115-.021.115-.018.115-.018.117-.016.115-.016.12-.016.115-.016.12-.012.118-.012.12-.012.12-.009.12-.011.12-.007.12-.008.123-.007.122-.006.123-.005.123-.003.123-.002.125-.002h.376v.034z"/>
  <path fill="#88C0D0" d="M499.328 211.327c2.574.963 5.35-.657 7.314-2.186 23.918-18.576-8.77-26.021-15.83-11.242"/>
  <path fill="#4C566A" d="M505.1 186.763l.205.002.203.005.205.009.203.009.201.013.203.012.203.016.199.018.203.02.199.02.197.026.201.024.199.027.197.027.197.033.195.032.195.034.197.038.193.04.195.04.191.043.193.047.184.046.1.024.096.024.096.028.096.024.094.025.094.027.094.027.096.03.092.027.094.03.092.03.096.029.088.03.094.033.094.031.092.031.09.032.092.035.09.032.094.035.092.037.09.035.088.035.088.037.092.037.088.038.09.038.09.039.086.04.088.04.088.043.088.04.086.042.088.043.086.045.086.043.088.044.084.046.082.045.086.047.084.045.086.051.084.047.084.048.082.05.08.05.082.05.082.053.084.053.078.053.084.053.076.055.08.055.084.055.076.059.078.055.08.057.078.061.074.057.078.061.076.061.076.061.074.062.074.063.074.063.074.062.072.065.072.064.076.068.07.066.07.066.068.068.072.07.07.07.068.067.066.072.068.07.066.075.066.072.066.075.066.075.063.074.064.078.061.074.063.08.061.078.061.08.061.08.057.08.059.08.061.084.057.086.053.08.057.087.057.087.051.086.051.082.053.09.051.091.049.087.051.09.045.09.047.091.045.093.045.092.045.094.043.094.043.096.037.092.039.096.041.1.037.092.035.098.037.1.033.102.033.097.031.097.029.102.031.102.027.103.027.101.025.1.025.105.023.102.021.104.021.102.02.105.018.102.021.111.014.105.016.1.012.107.014.104.012.11.01.105.008.102.008.109.008.111.004.105.004.106.002.104.002.111v.216l-.002.105-.006.109-.004.11-.006.11-.008.109-.01.107-.006.109-.014.105-.012.111-.014.111-.014.107-.016.105-.018.112-.018.112-.02.105-.02.109-.023.113-.02.104-.025.11-.025.109-.025.107-.027.109-.029.111-.029.109-.031.107-.031.111-.033.109-.033.107-.037.109-.035.107-.037.111-.037.106-.041.11-.039.107-.043.109-.043.108-.043.106-.047.11-.045.11-.047.107-.049.107-.049.109-.051.107-.049.108-.053.108-.053.109-.055.107-.055.107-.059.109-.057.108-.059.106-.061.107-.059.111-.063.107-.063.107-.063.107-.064.109-.068.11-.064.104-.068.109-.07.108-.068.108-.07.106-.072.107-.074.11-.074.107-.074.11-.076.104-.076.109-.078.108-.084.11-.078.109-.08.105-.082.109-.084.11-.084.108-.086.106-.088.11-.086.109-.088.107-.09.111-.094.109-.092.107-.094.109-.092.107-.096.111-.096.109-.098.11-.098.109-.1.11-.102.109-.102.11-.104.11-.102.109-.107.111-.105.109-.107.109-.107.113-.109.109-.111.109-.111.113-.113.109-.115.113-.111.109-.117.113-.117.112-.119.11-.119.112-.119.112-.123.113-.125.111-.123.113-.125.112-.127.112-.127.113-.131.111-.127.113-.133.115-.133.111-.135.115-.133.113-.137.114-.139.114-.137.113-.141.115-.141.115-.143.115-.145.115-.143.111-.145.117-.15.115-.146.115-.105.083-.111.085-.109.082-.111.082-.113.083-.111.133-.117.085-.119.083-.121.084-.123.084-.125.084-.123.083-.129.082-.129.085-.131.08-.133.082-.135.084-.135.079-.141.079-.141.078-.139.078-.143.078-.146.076-.148.076-.148.072-.148.072-.152.072-.156.067-.156.07-.162.064-.154.063-.084.034-.08.03-.082.03-.086.032-.084.029-.084.027-.082.028-.082.027-.088.03-.088.024-.084.028-.088.024-.088.024-.09.025-.086.023-.09.021-.092.023-.088.02-.09.023-.092.02-.09.018-.094.018-.094.017-.096.018-.092.015-.094.016-.098.016-.094.012-.096.01-.1.014-.096.009-.096.009-.1.006-.1.008-.098.006-.1.004-.1.003-.1.003h-.308l-.102-.006-.1-.002-.105-.004-.105-.009-.1-.007-.105-.011-.104-.012-.104-.011-.105-.016-.102-.014-.105-.016-.107-.02-.105-.021-.104-.021-.104-.021-.107-.025-.105-.024-.105-.028-.105-.027-.105-.032-.104-.03-.105-.035-.104-.034-.105-.035-.082-.032-.168-.066-.162-.074-.158-.085-.152-.091-.148-.1-.141-.109-.139-.115-.131-.123-.121-.129-.115-.136-.107-.142-.1-.148-.094-.154-.084-.158-.076-.162-.064-.164-.057-.172-.049-.172-.039-.172-.027-.178-.02-.178-.01-.178v-.18l.01-.178.02-.178.027-.177.039-.175.049-.171.057-.17.064-.167.076-.16.082-.16.094-.152.1-.148.109-.141.115-.137.121-.129.131-.123.135-.117.143-.107.148-.1.154-.093.158-.083.162-.074.164-.068.17-.057.174-.049.172-.037.178-.029.178-.021.178-.01h.18l.178.01.178.021.178.029.172.037.172.049.17.057.039.013.014.008.018.005.016.004.02.006.016.006.014.002.018.004.016.006.016.003.018.005.018.002.018.002.014.003.018.006.02.003.018.002h.018l.018.002.021.002h.02l.018.003h.02l.02.003h.129l.023-.003h.025l.021-.003.021-.002.027-.002.027-.002.02-.003.031-.003.027-.006.021-.002.031-.004.027-.006.029-.006.025-.004.029-.005.031-.009.029-.004.029-.008.033-.008.029-.007.031-.008.035-.01.031-.008.031-.01.033-.011.035-.01.033-.01.033-.01.035-.013.037-.013.035-.012.035-.014.035-.012.035-.012.037-.016.031-.013.08-.032.076-.03.074-.032.078-.035.076-.037.082-.038.078-.04.08-.04.08-.042.08-.043.084-.045.082-.047.082-.049.082-.047.084-.05.082-.053.082-.052.082-.053.082-.053.086-.055.08-.055.082-.059.082-.057.084-.058.078-.058.082-.061.082-.061.08-.059.082-.061.078-.06.076-.061.133-.103.127-.103.129-.101.127-.102.127-.1.123-.101.123-.097.121-.102.121-.1.117-.1.117-.098.117-.098.115-.098.113-.098.111-.097.111-.097.109-.096.107-.096.107-.095.105-.095.107-.096.102-.095.102-.093.102-.095.098-.093.1-.092.096-.09.098-.092.094-.094.094-.092.092-.09.09-.091.088-.087.09-.09.088-.09.084-.088.086-.09.082-.086.084-.088.078-.086.08-.088.078-.086.078-.084.078-.086.074-.084.072-.083.072-.085.072-.082.07-.083.07-.082.066-.083.066-.08.066-.08.066-.08.063-.08.061-.08.061-.076.061-.078.061-.078.057-.08.059-.074.055-.076.053-.074.055-.075.053-.077.051-.072.051-.072.049-.073.047-.071.047-.073.047-.073.047-.07.041-.066.045-.072.041-.068.039-.067.041-.067.039-.068.037-.066.035-.063.039-.067.037-.067.031-.063.033-.063.033-.063.031-.063.031-.063.027-.061.029-.063.027-.06.025-.058.027-.061.025-.057.025-.059.021-.055.023-.055.021-.058.02-.052.021-.055.02-.053.018-.056.02-.053.016-.05.018-.05.016-.05.014-.051.016-.047.012-.051.016-.047.01-.045.012-.045.01-.051.012-.042.01-.042.01-.049.008-.041.008-.041.01-.045.004-.037.006-.041.008-.041.004-.041.006-.035.002-.037.006-.042.002-.038.006-.035.002-.035v-.035l.002-.031v-.035l.002-.035v-.134l-.002-.033v-.027l-.002-.027-.004-.032-.002-.03-.002-.025-.006-.029-.002-.027-.006-.033-.004-.024-.004-.026-.004-.026-.006-.028-.004-.024-.008-.028-.006-.024-.004-.022-.008-.027-.008-.027-.008-.022-.004-.022-.008-.025-.01-.025-.008-.023-.008-.026-.008-.022-.01-.021-.01-.028-.008-.021-.01-.021-.012-.027-.01-.023-.012-.022-.01-.022-.01-.021-.012-.023-.014-.025-.012-.024-.014-.022-.014-.025-.01-.022-.016-.022-.016-.024-.014-.025-.016-.022-.012-.02-.018-.025-.018-.025-.014-.02-.018-.025-.02-.024-.018-.025-.018-.022-.018-.025-.02-.021-.02-.025-.02-.025-.023-.024-.02-.022-.021-.023-.021-.024-.02-.024-.025-.025-.023-.025-.023-.024-.025-.026-.023-.021-.025-.025-.027-.025-.027-.024-.025-.022-.027-.025-.027-.025-.029-.023-.029-.025-.029-.025-.029-.025-.031-.025-.031-.021-.029-.025-.035-.024-.033-.025-.033-.024-.033-.025-.035-.023-.033-.024-.035-.022-.037-.024-.035-.026-.037-.021-.037-.025-.039-.025-.039-.021-.039-.025-.041-.021-.039-.026-.041-.022-.041-.021-.041-.025-.041-.023-.045-.021-.045-.023-.041-.021-.043-.022-.045-.022-.045-.023-.049-.021-.045-.023-.047-.02-.045-.023-.051-.021-.047-.021-.047-.022-.051-.02-.047-.02-.051-.023-.055-.02-.049-.02-.049-.021-.053-.02-.053-.018-.051-.02-.053-.02-.059-.021-.051-.017-.053-.018-.057-.021-.055-.018-.055-.018-.057-.016-.059-.018-.055-.016-.057-.018-.059-.018-.059-.016-.057-.018-.061-.015-.057-.015-.055-.016-.125-.029-.121-.029-.121-.029-.123-.023-.125-.025-.129-.025-.127-.022-.127-.022-.131-.02-.129-.018-.133-.02-.133-.016-.133-.018-.135-.014-.135-.012-.137-.012-.135-.011-.139-.01-.139-.008-.139-.007-.143-.006-.137-.002-.143-.002-.141-.004h-.143l-.143.004-.143.002-.143.005-.145.005-.145.008-.143.008-.145.01-.146.012-.145.014-.145.015-.145.015-.146.018-.145.018-.145.02-.145.02-.143.023-.146.025-.145.024-.145.028-.145.026-.143.03-.145.029-.143.033-.143.035-.148.035-.064.018-.072.018-.07.02-.07.02-.072.021-.07.021-.07.018-.07.021-.072.02-.07.023-.066.021-.07.022-.07.021-.068.023-.07.021-.068.025-.066.023-.07.023-.07.026-.064.022-.07.024-.068.028-.07.024-.064.024-.066.028-.068.026-.068.029-.064.023-.068.031-.066.027-.064.027-.066.029-.066.031-.064.026-.066.03-.064.029-.064.033-.066.03-.063.029-.063.032-.064.031-.064.034-.063.032-.063.031-.063.035-.063.031-.063.035-.061.033-.063.035-.063.035-.061.035-.063.033-.057.035-.061.038-.063.038-.057.034-.061.038-.057.037-.059.035-.061.039-.057.038-.057.04-.061.037-.055.041-.059.04-.055.038-.059.041-.057.041-.053.039-.055.04-.055.044-.055.041-.055.043-.053.043-.053.039-.053.045-.053.043-.053.043-.053.045-.053.045-.053.042-.049.046-.051.044-.049.046-.051.047-.049.045-.051.047-.051.049-.047.045-.047.047-.049.047-.047.049-.047.047-.047.051-.047.047-.045.05-.045.048-.047.049-.045.053-.043.051-.043.047-.043.053-.047.053-.041.053-.043.05-.043.052-.043.053-.039.053-.043.056-.039.052-.041.055-.039.053-.039.055-.041.059-.037.053-.039.055-.039.057-.037.059-.035.055-.037.057-.039.059-.035.057-.035.058-.035.06-.033.059-.035.061-.035.059-.033.061-.035.061-.031.063-.033.06-.033.062-.029.061-.033.063-.029.063-.035.072-.082.158-.09.155-.098.149-.107.143-.115.137-.119.134-.129.122-.135.117-.143.109-.145.104-.152.096-.158.084-.162.078-.166.066-.166.059-.174.05-.172.042-.178.031-.178.02-.176.012-.178.004-.182-.009-.176-.018-.178-.026-.176-.035-.172-.046-.17-.058-.166-.063-.164-.072-.158-.082-.154-.09-.148-.1-.145-.105-.137-.115-.131-.119-.125-.131-.117-.135-.109-.141-.104-.147-.092-.152-.086-.155-.078-.162-.066-.166-.061-.167-.051-.173-.039-.174-.031-.176-.021-.178-.012-.178-.002-.18.006-.178.018-.177.029-.178.037-.175.045-.172.055-.17.064-.168.072-.163.049-.1.055-.11.051-.107.059-.107.055-.107.059-.107.057-.104.055-.105.061-.104.061-.104.059-.105.061-.102.063-.1.063-.104.063-.1.063-.1.064-.1.066-.1.064-.099.068-.098.066-.097.068-.098.066-.093.068-.097.07-.096.07-.092.068-.094.07-.09.072-.095.072-.091.074-.09.074-.089.074-.091.074-.085.074-.087.078-.09.074-.086.078-.086.076-.084.078-.084.078-.086.078-.082.078-.083.08-.079.08-.082.082-.081.08-.08.084-.079.082-.078.082-.078.082-.077.084-.075.084-.078.086-.074.084-.075.086-.072.084-.075.086-.069.088-.073.086-.072.086-.07.09-.07.088-.068.086-.068.092-.068.086-.066.09-.068.094-.066.088-.066.09-.062.092-.065.09-.063.092-.064.094-.061.09-.063.092-.063.094-.057.092-.061.096-.061.092-.06.096-.058.092-.055.096-.058.094-.058.098-.055.094-.055.094-.053.098-.055.096-.053.098-.053.094-.053.098-.05.098-.05.098-.051.096-.049.098-.048.1-.05.098-.047.098-.049.1-.045.098-.045.098-.045.1-.045.098-.045.1-.043.1-.045.102-.04.1-.042.1-.043.1-.039.1-.041.1-.039.104-.038.1-.04.1-.037.102-.035.102-.037.104-.038.1-.035.102-.034.104-.035.1-.033.102-.035.104-.032.102-.03.104-.032.102-.032.102-.029.102-.031.105-.029.102-.027.104-.031.102-.027.104-.026.102-.026.107-.026.203-.053.207-.048.207-.047.205-.045.209-.043.207-.04.207-.038.207-.037.207-.035.209-.032.207-.03.207-.027.209-.025.209-.023.207-.023.205-.02.207-.018.209-.018.207-.013.207-.013.205-.01.207-.01.205-.006.209-.004.205-.002h.205l.211-.032z"/>
  <path fill="#88C0D0" d="M497.773 406.811s12.43-24.441 10.082-45.404c-7.355-65.624 11.963-78.499 4.41-118.528-2.623-13.9-7.578-29.73-16.021-41.238-18.551-25.29-54.214-38.428-85.231-32.486-12.417 2.377-23.633 7.754-34.733 13.652-38.612 20.512-46.637 63.805-41.617 100.295 2.22 16.151 16.11 41.327 14.077 57.526-4.235 33.766-3.05 52.043 7.493 73.822 8.985 18.564 43.953 32.551 82.183 28.575 6.511-.677 45.488-7.507 59.357-36.214z"/>
  <path opacity=".15" fill="#5E81AC" d="M359.755 198.696s-13.15 16.908-9.593 43.174c5.345 39.452 21.928 30.99 20.798 101.995-.563 35.395-2.675 56.742 12.913 78.049 15.138 20.695 58.43 20.668 69.374 17.541 10.943-3.128-43.149 11.254-74.104-1.25-30.955-12.508-35.333-65.039-31.268-97.867 4.065-32.83-22.2-42.211-13.445-98.806 14.07-33.142 14.383-31.267 25.325-42.836z"/>
  <path fill="#4C566A" d="M426.573 164.439l.39.003.387.006.39.004.39.008.388.01.39.01.39.013.388.015.39.018.39.018.388.018.39.023.39.021.387.025.39.025.39.027.388.029.39.03.388.032.39.035.39.037.387.038.388.038.39.041.387.043.387.043.391.047.387.049.387.047.388.053.388.053.387.053.388.055.387.057.385.061.387.06.385.063.388.063.385.064.387.067.385.067.385.07.385.072.382.072.385.075.385.077.385.078.383.08.383.08.385.082.383.086.383.084.379.088.383.09.383.09.381.092.379.094.381.094.379.099.381.097.379.1.379.104.379.102.379.105.377.105.377.107.375.109.377.111.375.111.375.113.375.115.375.117.375.117.373.12.373.122.373.123.371.122.371.128.371.127.371.128.369.13.371.133.367.133.367.135.367.135.367.141.369.137.365.141.363.142.365.146.365.145.363.145.361.15.363.147.363.153.359.152.359.152.359.154.357.158.361.158.354.158.359.164.357.162.355.162.352.165.355.167.352.168.354.17.352.172.35.174.352.175.35.175.348.175.35.181.344.18.348.18.346.183.346.185.342.186.342.185.344.19.342.189.34.19.34.192.338.195.338.195.338.194.334.198.336.199.334.199.332.203.334.205.33.205.33.205.33.207.328.211.328.209.326.213.324.213.324.215.324.215.322.217.322.219.32.22.32.223.316.223.316.226.318.225.314.225.313.23.316.227.309.232.313.23.311.234.309.236.307.234.309.237.305.237.303.242.305.24.299.242.301.246.299.244.299.248.297.248.297.249.293.25.295.251.293.254.289.253.291.258.287.257.287.258.289.26.281.26.285.264.283.264.279.264.279.267.279.268.277.269.273.27.273.272.275.272.27.272.27.274.271.277.264.275.135.143.133.138.133.14.133.143.129.141.133.14.133.142.131.141.129.143.131.143.129.143.129.143.129.143.131.143.127.145.127.143.129.145.127.145.125.146.127.145.125.145.125.145.129.148.121.145.125.148.125.146.123.148.125.146.123.148.121.146.123.15.123.15.119.147.121.149.121.15.121.15.119.15.121.149.117.152.119.149.117.152.121.152.117.153.115.152.117.153.117.152.115.152.117.154.115.155.113.153.115.154.113.154.105.146.104.142.105.143.102.146.102.145.104.143.102.145.104.148.102.145.102.145.102.148.1.146.098.146.1.146.102.15.1.146.098.148.1.149.098.149.098.15.098.148.096.152.193.299.189.303.191.303.188.306.188.308.188.308.182.308.186.309.18.313.182.313.178.312.178.316.178.314.176.317.172.315.172.32.17.319.17.319.17.32.166.322.168.326.164.322.162.327.164.325.16.327.158.328.158.327.158.33.154.33.156.332.152.33.152.335.148.333.15.332.148.336.146.334.145.338.146.334.145.338.141.338.143.34.139.338.139.34.137.34.137.342.135.341.133.343.137.34.129.345.133.343.127.343.131.345.127.342.125.346.125.345.123.345.123.346.121.348.121.345.119.347.117.346.119.348.117.348.113.348.113.348.113.347.111.348.111.347.109.348.109.352.107.346.105.349.105.35.105.348.102.347.104.351.102.349.1.346.1.349.098.35.098.348.096.347.096.348.094.349.094.347.092.348.092.348.09.348.088.345.09.349.088.344.086.348.084.346.086.344.082.346.082.342.082.346.08.346.08.342.078.342.078.344.076.342.078.342.072.341.074.34.074.341.072.34.072.34.068.338.07.337.068.337.066.338.068.336.064.334.066.335.064.333.063.334.045.24.045.24.043.24.045.237.041.24.043.237.041.237.043.237.039.235.039.235.039.235.039.234.039.235.037.232.033.232.039.232.035.232.035.23.035.23.031.231.033.228.035.23.029.23.033.227.029.225.029.229.031.227.029.225.027.226.031.226.027.225.023.223.027.225.025.223.025.223.025.223.025.223.021.219.023.221.025.221.02.219.021.219.021.22.021.218.018.217.02.219.021.217.018.215.018.217.018.216.016.214.016.217.018.211.016.213.014.215.016.213.014.213.012.213.025.422.025.42.02.42.02.418.018.418.016.412.014.414.01.413.012.407.01.41.004.407.006.405.002.404.002.403v.401l-.002.401-.004.399-.006.397-.008.397-.008.395-.01.396-.012.393-.014.393-.014.39-.016.391-.018.391-.02.387-.02.385-.023.389-.025.384-.021.384-.027.384-.029.38-.025.383-.031.38-.031.38-.033.377-.033.379-.035.377-.037.377-.037.375-.037.375-.041.375-.039.375-.043.373-.043.373-.043.371-.045.373-.045.37-.047.37-.047.373-.051.369-.049.37-.051.368-.051.369-.053.367-.051.369-.057.369-.053.367-.055.367-.057.367-.059.369-.057.367-.057.367-.059.365-.061.369-.059.368-.061.364-.063.368-.061.367-.063.368-.063.367-.064.369-.127.735-.129.737-.131.738-.133.74-.133.742-.135.744-.139.746-.271 1.5-.277 1.512-.139.76-.139.766-.139.77-.137.773-.139.777-.137.781-.137.788-.068.393-.068.397-.066.397-.068.4-.066.399-.064.403-.068.404-.064.405-.068.408-.064.407-.064.409-.063.41-.066.415-.063.414-.064.419-.063.417-.063.42-.061.423-.063.422-.059.425-.061.428-.061.431-.057.433-.061.435-.057.435-.057.438-.057.439-.055.44-.055.444-.057.448-.051.447-.053.449-.053.453-.051.455-.049.46-.051.46-.047.463-.049.465-.047.467-.045.471-.045.47-.043.475-.045.48-.039.48-.043.481-.039.485-.039.487-.027.483-.037.494-.035.496-.035.5-.031.504-.033.504-.031.508-.029.51-.029.515-.029.519-.023.52-.025.523-.021.527-.023.529-.023.531-.018.536-.02.54-.016.543-.018.545-.012.549-.012.553-.014.555-.006.561-.01.563-.006.564-.006.57-.004.575v.577l-.002.58.002.583.002.587.006.594.008.595.006.601.01.602.012.605.012.612.014.612.018.617.018.625.021.625.021.631.025.634.025.638.027.643.029.645.033.65.033.656.037.659.037.662.041.668.02.335.02.338.021.338.023.337.023.34.021.34.025.343.021.343.025.345.025.342.027.348.025.348.027.348.027.35.027.35.027.354.029.353.031.354.029.355.031.354.031.359.031.359.031.359.035.36.033.362.035.363.033.364.037.366.033.366.035.368.039.37.037.369.039.37.037.375.041.373.041.375.039.377.039.377.043.378.043.386.029.26.029.263.023.265.025.266.021.264.023.266.02.266.018.266.018.262.018.266.016.264.012.268.014.266.01.266.01.265.008.265.006.266.006.264.006.268.002.266.002.266v.796l-.004.264-.004.266-.004.265-.008.267-.008.264-.008.266-.01.265-.01.265-.012.263-.014.265-.014.263-.016.265-.018.266-.016.264-.02.264-.018.264-.023.262-.02.263-.021.263-.023.262-.023.264-.025.26-.025.262-.027.264-.027.26-.031.259-.029.261-.029.26-.033.262-.029.258-.035.261-.033.257-.035.26-.037.26-.035.256-.037.257-.037.258-.041.258-.039.255-.041.258-.039.255-.043.255-.043.255-.043.252-.045.255-.045.254-.045.252-.047.252-.045.253-.047.249-.049.254-.049.25-.051.249-.047.251-.053.247-.051.249-.051.248-.053.244-.053.249-.053.245-.055.247-.055.243-.053.244-.059.245-.055.24-.057.243-.059.242-.057.238-.059.24-.057.24-.061.24-.057.238-.061.236-.061.238-.059.234-.064.236-.059.234-.063.232-.061.232-.063.232-.063.232-.064.233-.063.229-.063.228-.066.228-.064.227-.064.229-.063.225-.066.225-.064.225-.066.223-.066.223-.064.223-.066.221-.133.438-.133.432-.135.434-.135.425-.135.422-.139.421-.135.414-.137.41-.135.407-.139.401-.137.396-.135.395-.139.389-.137.385-.135.377-.135.375-.137.37-.135.362-.135.361-.133.354-.133.349-.131.343-.133.341-.131.332-.127.328-.127.322-.129.317-.125.31-.121.306-.123.3-.123.292-.117.288-.117.283-.117.273-.113.269-.111.263-.111.256-.107.249-.104.243-.105.236-.1.229-.102.223-.094.216-.078.188-.092.203-.174.38-.162.354-.15.322-.137.293-.125.264-.109.229-.098.201-.08.162-.064.132-.051.103-.027.053-.076.152-.086.18-.088.181-.09.179-.092.176-.088.178-.092.176-.092.174-.09.179-.096.175-.092.172-.092.175-.096.173-.096.173-.094.173-.096.17-.098.172-.098.17-.098.17-.1.171-.098.167-.1.17-.1.168-.1.166-.102.168-.102.166-.104.164-.102.168-.102.163-.104.164-.105.165-.105.16-.104.166-.105.159-.107.163-.107.162-.107.16-.107.156-.107.161-.107.159-.111.16-.109.155-.109.158-.111.157-.111.156-.109.156-.115.154-.111.155-.111.152-.115.155-.115.152-.113.152-.113.152-.117.15-.117.152-.113.152-.119.15-.117.15-.117.146-.117.148-.117.147-.121.149-.117.148-.121.147-.121.144-.117.144-.123.147-.123.145-.119.143-.123.146-.123.142-.121.143-.125.144-.123.14-.125.143-.123.14-.125.141-.127.14-.125.141-.125.137-.125.137-.129.139-.129.137-.125.135-.127.138-.131.136-.127.135-.129.135-.131.135-.127.133-.131.135-.131.13-.129.132-.133.135-.133.132-.129.13-.133.131-.133.129-.133.129-.133.129-.131.127-.137.131-.134.123-.131.125-.135.127-.137.125-.135.129-.135.123-.135.126-.135.123-.137.122-.135.125-.137.122-.139.12-.137.123-.139.123-.137.119-.137.123-.139.117-.139.119-.141.121-.137.117-.141.119-.141.119-.137.114-.141.117-.143.117-.141.114-.139.117-.143.114-.141.114-.143.113-.143.115-.143.111-.139.113-.143.112-.143.11-.145.115-.143.109-.143.11-.289.22-.287.217-.287.215-.289.216-.291.212-.289.213-.293.208-.293.208-.293.205-.291.205-.295.201-.293.2-.295.2-.299.197-.295.195-.297.195-.297.191-.295.191-.301.189-.297.188-.299.184-.299.186-.301.184-.299.182-.301.178-.301.18-.299.176-.301.176-.303.172-.299.172-.303.17-.301.168-.303.168-.303.167-.301.161-.301.164-.303.162-.303.16-.303.158-.299.154-.303.154-.303.156-.303.152-.303.15-.299.149-.301.147-.303.146-.303.146-.299.144-.301.141-.301.141-.301.141-.301.138-.297.138-.301.135-.301.135-.297.132-.301.13-.295.131-.299.127-.299.128-.293.128-.299.121-.295.126-.295.12-.295.123-.293.117-.293.117-.293.117-.293.115-.291.115-.291.112-.291.112-.287.11-.291.11-.287.106-.287.105-.287.105-.285.104-.285.104-.285.102-.283.1-.279.101-.283.097-.279.098-.279.096-.281.094-.277.096-.275.092-.273.091-.275.091-.273.09-.271.086-.273.088-.27.086-.268.082-.27.084-.266.084-.264.08-.266.079-.264.081-.262.077-.26.077-.26.075-.258.075-.256.072-.254.072-.256.073-.252.069-.25.07-.25.07-.248.064-.246.068-.244.064-.244.064-.24.063-.24.066-.24.059-.236.061-.236.06-.232.06-.232.058-.232.056-.227.057-.229.055-.225.053-.225.056-.221.05-.219.053-.221.05-.43.097-.424.097-.414.089-.408.088-.398.086-.391.08-.383.076-.375.076-.368.07-.357.066-.347.065-.34.06-.328.061-.322.055-.31.053-.303.051-.292.047-.282.041-.271.044-.262.038-.252.037-.24.031-.23.033-.22.027-.21.025-.2.024-.19.022-.178.018-.462.048-.458.044-.459.047-.458.039-.459.04-.458.04-.458.037-.458.035-.455.033-.457.031-.455.031-.455.029-.455.025-.455.027-.455.023-.455.021-.453.02-.452.021-.453.018-.452.015-.452.015-.45.013-.453.011-.45.009-.447.009-.45.007-.45.005-.43.007-.448.003h-.447l-.445-.003-.448-.003-.445-.005-.445-.004-.442-.009-.445-.009-.443-.012-.442-.012-.442-.012-.44-.016-.44-.018-.442-.018-.438-.02-.437-.021-.44-.022-.437-.021-.435-.029-.438-.023-.436-.031-.435-.029-.433-.03-.432-.032-.433-.035-.433-.035-.43-.037-.43-.037-.43-.04-.43-.041-.428-.042-.427-.045-.425-.045-.425-.047-.425-.049-.425-.049-.423-.051-.422-.053-.423-.053-.419-.055-.42-.058-.417-.058-.417-.06-.418-.06-.417-.061-.415-.064-.415-.063-.412-.068-.413-.066-.413-.068-.41-.07-.41-.068-.41-.073-.408-.073-.408-.072-.405-.078-.404-.076-.406-.079-.402-.079-.403-.082-.402-.084-.4-.082-.398-.086-.397-.086-.397-.088-.395-.088-.398-.092-.393-.09-.392-.093-.393-.095-.39-.096-.39-.094-.387-.1-.388-.097-.388-.1-.385-.103-.385-.103-.382-.103-.38-.105-.383-.105-.377-.107-.38-.106-.377-.11-.375-.109-.375-.113-.373-.112-.372-.112-.373-.115-.371-.117-.367-.118-.368-.117-.368-.12-.362-.12-.365-.122-.363-.123-.36-.124-.36-.126-.36-.127-.357-.128-.355-.126-.354-.131-.353-.13-.353-.132-.35-.135-.35-.135-.348-.135-.347-.135-.346-.137-.344-.139-.343-.139-.34-.141-.341-.143-.337-.143-.337-.143-.334-.145-.335-.145-.332-.148-.333-.147-.328-.147-.33-.15-.328-.152-.325-.15-.323-.152-.322-.154-.322-.154-.318-.156-.32-.156-.315-.158-.315-.158-.312-.158-.313-.164-.31-.16-.31-.162-.308-.164-.305-.166-.305-.165-.303-.167-.3-.167-.3-.167-.297-.17-.295-.172-.295-.172-.292-.172-.29-.173-.29-.173-.288-.178-.288-.174-.285-.179-.283-.177-.28-.181-.28-.177-.277-.184-.275-.179-.275-.183-.272-.186-.27-.186-.27-.185-.268-.185-.265-.188-.265-.188-.26-.19-.263-.19-.257-.189-.258-.191-.255-.193-.252-.193-.25-.193-.25-.196-.248-.194-.245-.198-.245-.196-.243-.201-.24-.197-.237-.202-.235-.2-.235-.203-.232-.201-.228-.203-.117-.105-.115-.102-.112-.104-.112-.102-.113-.104-.112-.104-.112-.104-.113-.104-.11-.105-.11-.103-.108-.105-.11-.103-.11-.106-.107-.105-.108-.104-.107-.105-.107-.105-.105-.106-.105-.105-.105-.107-.105-.107-.105-.105-.103-.107-.105-.107-.103-.107-.1-.107-.103-.107-.1-.107-.103-.109-.1-.108-.1-.11-.098-.107-.098-.109-.1-.109-.098-.111-.098-.109-.095-.11-.095-.11-.095-.109-.095-.111-.095-.111-.095-.109-.092-.11-.093-.112-.09-.11-.093-.114-.092-.113-.087-.109-.093-.113-.09-.115-.087-.111-.087-.113-.09-.112-.085-.114-.087-.113-.085-.115-.085-.111-.085-.117-.085-.114-.085-.117-.083-.112-.083-.117-.083-.115-.08-.112-.083-.118-.083-.117-.077-.115-.081-.115-.077-.117-.078-.117-.08-.117-.075-.117-.077-.117-.075-.119-.075-.117-.075-.119-.075-.119-.073-.117-.072-.119-.073-.121-.072-.117-.07-.119-.07-.118-.07-.122-.07-.119-.067-.121-.067-.119-.068-.121-.067-.121-.065-.117-.067-.123-.065-.123-.062-.12-.065-.122-.062-.123-.063-.119-.063-.125-.06-.123-.06-.123-.06-.12-.127-.265-.125-.263-.125-.261-.123-.258-.125-.264-.12-.26-.123-.26-.12-.26-.12-.261-.118-.261-.12-.256-.115-.26-.118-.261-.115-.258-.115-.261-.112-.256-.113-.258-.112-.26-.113-.258-.11-.258-.11-.258-.107-.258-.108-.258-.107-.26-.107-.254-.105-.258-.105-.258-.103-.257-.103-.258-.103-.255-.103-.258-.1-.258-.1-.258-.098-.254-.1-.258-.095-.258-.098-.254-.095-.258-.095-.256-.095-.258-.093-.256-.092-.256-.093-.258-.09-.254-.09-.258-.088-.258-.09-.255-.087-.258-.085-.258-.087-.255-.085-.258-.085-.258-.082-.256-.083-.256-.082-.258-.08-.256-.08-.258-.08-.256-.078-.26-.08-.255-.075-.258-.078-.261-.075-.258-.075-.256-.075-.258-.072-.26-.073-.258-.07-.258-.072-.26-.07-.258-.067-.26-.07-.258-.068-.26-.067-.26-.065-.26-.065-.26-.065-.261-.063-.261-.065-.26-.063-.262-.06-.264-.06-.258-.06-.264-.06-.26-.058-.262-.057-.264-.058-.262-.055-.263-.055-.263-.055-.265-.055-.263-.052-.266-.053-.263-.05-.265-.052-.266-.05-.264-.047-.266-.05-.268-.047-.266-.047-.268-.045-.264-.044-.268-.045-.271-.045-.267-.042-.267-.042-.268-.042-.271-.04-.27-.04-.27-.04-.27-.04-.27-.038-.271-.037-.271-.035-.273-.038-.271-.035-.273-.035-.273-.033-.271-.032-.275-.033-.273-.032-.275-.03-.275-.03-.278-.03-.274-.03-.277-.027-.275-.028-.28-.025-.276-.028-.28-.025-.28-.025-.277-.022-.28-.022-.282-.022-.283-.022-.279-.02-.285-.02-.282-.02-.282-.02-.286-.018-.284-.018-.285-.018-.287-.015-.286-.018-.287-.015-.287-.012-.29-.015-.287-.012-.29-.013-.29-.01-.293-.012-.293-.01-.29-.01-.292-.008-.295-.007-.295-.007-.295-.007-.295-.008-.295-.005-.299-.005-.299-.005-.299-.002-.299-.002-.297-.002-.304-.002-.302v-1.214l.002-.305v-.305l.002-.308.005-.308.002-.308.005-.311.005-.31.007-.311.005-.312.008-.313.007-.313.01-.314.007-.314.01-.315.01-.317.01-.318.012-.319.013-.317.012-.32.013-.322.013-.322.015-.323.015-.325.015-.324.018-.326.015-.324.018-.33.02-.327.018-.331.02-.328.018-.334.022-.332.02-.332.02-.335.023-.335.022-.338.025-.338.022-.337.025-.34.025-.343.025-.34.025-.346.027-.342.027-.346.028-.344.027-.349.028-.349.03-.349.03-.353.062-.702.063-.708.065-.715.067-.717.07-.723.073-.729.075-.732.078-.734.078-.743.08-.747.083-.75.085-.758.087-.762.09-.768.09-.773.093-.777.095-.782.098-.788.097-.785.021-.172.02-.168.018-.164.015-.168.015-.168.015-.17.013-.172.013-.17.01-.172.01-.176.007-.173.005-.177.007-.178.005-.178.002-.18.002-.18v-.363l-.002-.185v-.186l-.005-.186-.005-.186-.005-.188-.008-.189-.008-.188-.01-.189-.01-.192-.013-.19-.012-.195-.013-.194-.015-.193-.015-.196-.018-.196-.018-.199-.02-.198-.02-.197-.02-.199-.022-.201-.025-.201-.022-.203-.025-.203-.027-.205-.028-.205-.027-.205-.03-.207-.03-.205-.033-.209-.033-.208-.032-.21-.035-.211-.035-.209-.035-.211-.038-.211-.038-.214-.04-.214-.04-.213-.04-.215-.04-.215-.042-.219-.045-.217-.042-.215-.045-.219-.047-.219-.045-.218-.047-.22-.05-.22-.048-.223-.05-.22-.052-.223-.05-.223-.052-.223-.055-.223-.052-.225-.055-.225-.055-.225-.055-.226-.058-.226-.058-.229-.06-.225-.057-.227-.06-.229-.06-.229-.063-.229-.06-.229-.063-.229-.063-.232-.065-.23-.063-.23-.065-.229-.064-.231-.068-.231-.065-.231-.067-.232-.067-.233-.135-.463-.14-.467-.14-.471-.143-.47-.145-.47-.147-.473-.15-.473-.15-.475-.153-.475-.152-.478-.155-.476-.155-.477-.158-.479-.16-.479-.16-.478-.16-.48-.163-.48-.163-.48-.163-.479-.165-.482-.165-.48-.165-.48-.167-.482-.333-.962-.335-.962-.335-.961-.667-1.92-.333-.957-.33-.953-.165-.479-.162-.475-.163-.475-.163-.475-.16-.473-.16-.472-.16-.473-.158-.471-.155-.469-.155-.469-.152-.467-.152-.465-.15-.466-.147-.465-.148-.462-.145-.461-.142-.459-.14-.458-.138-.458-.138-.454-.132-.452-.067-.229-.065-.228-.065-.225-.065-.226-.065-.225-.062-.225-.063-.223-.063-.225-.06-.223-.06-.223-.06-.223-.06-.223-.058-.22-.057-.223-.058-.22-.058-.221-.055-.217-.055-.22-.053-.22-.052-.219-.053-.219-.052-.216-.05-.217-.05-.216-.05-.217-.048-.215-.047-.215-.048-.216-.044-.214-.045-.213-.042-.213-.045-.213-.04-.213-.042-.212-.04-.21-.038-.209-.04-.214-.038-.21-.035-.207-.035-.21-.035-.208-.032-.207-.032-.207-.03-.209-.03-.207-.03-.201-.06-.438-.058-.44-.057-.438-.055-.439-.055-.439-.053-.441-.053-.441-.05-.44-.05-.442-.047-.445-.048-.442-.045-.442-.045-.445-.042-.445-.042-.444-.04-.448-.04-.443-.038-.448-.038-.448-.035-.447-.033-.449-.032-.448-.033-.447-.03-.452-.028-.447-.027-.451-.025-.452-.022-.45-.025-.452-.02-.45-.02-.452-.018-.452-.018-.453-.018-.455-.013-.452-.012-.452-.013-.455-.01-.455-.007-.453-.007-.455-.005-.455-.005-.454-.002-.458v-.91l.002-.454.003-.458.005-.455.007-.457.008-.458.01-.454.013-.459.012-.457.015-.457.015-.458.018-.454.02-.457.02-.459.023-.457.025-.457.025-.458.027-.457.027-.458.03-.457.033-.458.035-.458.035-.457.038-.457.038-.457.04-.459.042-.457.045-.457.045-.458.047-.457.048-.458.052-.455.05-.457.055-.455.055-.457.057-.457.06-.456.063-.455.063-.454.063-.459.067-.455.068-.454.07-.454.072-.456.073-.452.078-.455.075-.453.04-.227.04-.225.04-.229.04-.228.042-.226.04-.227.042-.225.042-.229.042-.225.045-.228.042-.226.045-.227.045-.225.045-.226.045-.226.047-.225.047-.227.045-.226.047-.226.05-.225.048-.225.05-.225.05-.226.05-.226.05-.225.05-.223.053-.225.053-.225.052-.226.053-.223.052-.226.055-.223.052-.225.055-.223.055-.225.057-.223.055-.222.058-.226.057-.223.058-.223.057-.223.06-.223.058-.223.06-.222.063-.222.06-.223.06-.221.062-.223.063-.223.063-.223.062-.219.065-.223.065-.221.065-.223.065-.22.065-.22.065-.223.068-.221.067-.219.067-.221.067-.22.07-.218.069-.221.07-.221.07-.219.07-.22.072-.22.073-.218.07-.22.075-.217.072-.219.075-.217.072-.221.075-.217.078-.219.075-.217.078-.218.078-.217.077-.218.078-.215.078-.218.08-.214.081-.219.08-.217.08-.215.083-.216.083-.215.083-.218.083-.215.083-.212.085-.216.085-.215.085-.215.085-.215.088-.215.085-.213.087-.212.087-.216.09-.212.087-.213.09-.212.09-.213.09-.213.092-.213.09-.209.092-.213.093-.213.095-.209.093-.213.095-.211.095-.209.095-.213.098-.209.095-.208.098-.21.098-.211.1-.209.098-.208.1-.21.1-.207.1-.21.103-.208.1-.207.103-.208.103-.208.105-.207.103-.205.105-.207.105-.208.107-.205.105-.204.107-.205.107-.208.108-.205.107-.205.11-.202.11-.205.11-.205.11-.203.112-.205.113-.202.112-.202.113-.202.115-.202.112-.203.115-.203.118-.199.115-.203.117-.199.118-.201.117-.201.118-.201.12-.199.12-.199.12-.199.12-.199.122-.197.123-.201.123-.196.123-.198.123-.197.125-.197.125-.197.127-.197.125-.195.127-.195.127-.197.128-.195.127-.195.13-.195.13-.194.13-.192.133-.195.13-.192.132-.194.135-.193.132-.192.133-.19.135-.191.138-.193.135-.192.138-.19.137-.189.138-.189.138-.189.14-.19.14-.19.14-.189.14-.188.14-.188.143-.188.145-.188.143-.188.142-.188.145-.188.148-.186.145-.188.145-.182.147-.188.15-.186.147-.184.147-.185.15-.183.152-.184.15-.184.15-.183.152-.183.155-.182.152-.181.152-.183.155-.18.155-.18.158-.18.157-.181.158-.181.158-.177.157-.178.16-.18.161-.178.16-.177.163-.176.16-.178.163-.177.163-.175.165-.176.165-.174.165-.176.165-.173.167-.175.165-.172.167-.174.17-.172.167-.172.17-.173.17-.17.17-.17.173-.173.172-.17.173-.17.175-.17.172-.168.175-.168.175-.167.177-.167.175-.168.177-.167.18-.165.178-.168.18-.165.18-.165.18-.162.183-.165.183-.163.183-.164.183-.162.185-.164.185-.162.185-.16.185-.16.188-.162.188-.158.188-.158.19-.161.188-.157.192-.16.19-.157.189-.157.193-.156.192-.156.195-.156.193-.154.195-.157.198-.152.195-.155.197-.152.198-.152.197-.152.2-.152.198-.152.2-.15.202-.152.2-.15.203-.15.205-.146.202-.15.205-.148.205-.146.205-.148.205-.146.208-.145.208-.146.21-.146.21-.146.208-.141.212-.146.21-.143.212-.142.212-.144.213-.143.215-.139.212-.141.218-.141.215-.139.218-.141.217-.137.217-.141.22-.138.218-.138.22-.135.223-.138.22-.135.223-.135.223-.132.225-.137.223-.132.225-.136.228-.132.225-.13.228-.133.227-.13.23-.13.23-.13.228-.127.232-.13.23-.128.233-.128.232-.127.235-.125.232-.127.235-.123.525-.28.525-.278.525-.276.525-.275.527-.274.527-.275.527-.273.528-.271.53-.271.528-.27.532-.271.53-.268.532-.265.532-.265.536-.266.532-.262.536-.258.27-.133.268-.127.27-.131.267-.127.27-.127.268-.128.27-.128.27-.127.27-.125.27-.127.273-.126.27-.125.271-.122.271-.125.273-.123.27-.123.273-.121.272-.123.273-.119.275-.123.272-.12.272-.118.274-.119.275-.117.275-.121.275-.115.275-.117.275-.115.275-.117.277-.115.278-.112.275-.114.277-.113.277-.112.278-.11.28-.112.277-.109.28-.11.28-.107.277-.107.28-.107.282-.107.28-.105.28-.107.283-.103.282-.104.283-.104.283-.102.283-.104.282-.1.285-.1.285-.1.285-.098.285-.098.285-.098.286-.096.287-.095.285-.095.288-.093.288-.093.287-.092.291-.09.287-.09.29-.09.29-.088.29-.088.29-.088.292-.084.29-.086.292-.082.292-.082.293-.082.292-.081.294-.08.295-.079.295-.078.292-.074.297-.078.295-.074.298-.073.297-.073.298-.072.297-.07.298-.068.3-.07.3-.068.3-.064.3-.065.3-.065.302-.062.303-.063.302-.06.303-.06.305-.061.377-.072.379-.07.38-.067.38-.065.382-.064.38-.063.383-.061.382-.059.38-.059.385-.055.383-.053.382-.053.385-.05.382-.048.385-.047.383-.045.385-.043.385-.039.384-.041.386-.037.387-.035.385-.035.388-.032.384-.03.388-.027.387-.027.385-.025.388-.024.387-.021.387-.02.388-.018.388-.018.387-.016.39-.012.387-.012.387-.009.391-.009.388-.006.39-.006.387-.002h.388l.391.029zm-.748 6.598l-.36.003-.357.004-.36.006-.36.008-.36.01-.357.01-.357.013-.36.013-.357.015-.358.017-.357.018-.36.021-.354.022-.358.023-.357.024-.357.027-.355.028-.357.029-.355.029-.355.033-.354.035-.355.037-.355.038-.355.04-.353.039-.353.043-.355.045-.353.045-.352.049-.352.049-.351.051-.353.053-.35.055-.353.055-.35.058-.35.06-.347.061-.351.063-.347.064-.351.064-.278.055-.277.056-.278.056-.277.057-.275.058-.277.06-.274.061-.278.061-.275.063-.275.063-.274.064-.273.064-.274.066-.275.067-.272.067-.272.07-.272.07-.272.068-.273.072-.272.073-.273.075-.27.074-.271.076-.272.074-.27.078-.27.08-.27.078-.271.082-.27.079-.268.083-.27.082-.267.082-.27.086-.268.086-.267.086-.267.088-.268.088-.268.087-.267.091-.267.09-.266.092-.265.091-.268.095-.265.093-.267.095-.265.096-.265.094-.265.098-.265.098-.263.098-.265.1-.265.1-.262.101-.265.101-.262.102-.265.104-.262.104-.263.104-.263.104-.265.105-.263.108-.259.106-.263.107-.263.108-.262.107-.263.109-.26.109-.262.113-.263.109-.26.113-.262.111-.26.113-.26.115-.262.115-.26.115-.26.115-.259.114-.26.117-.26.118-.26.117-.26.119-.26.121-.26.117-.26.119-.259.123-.26.12-.258.123-.26.122-.257.123-.259.121-.26.126-.258.122-.26.125-.257.125-.517.252-.518.254-.517.254-.518.258-.518.26-.515.261-.517.261-.515.264-.518.266-.515.265-.518.267-.515.268-.516.271-.517.27-.515.272-.517.272-.515.275-.218.114-.217.118-.215.115-.215.117-.215.117-.212.117-.212.121-.213.119-.212.117-.21.121-.21.121-.21.121-.208.122-.208.12-.208.122-.208.123-.205.124-.208.123-.203.125-.205.125-.203.125-.203.125-.203.127-.202.125-.2.129-.2.127-.2.127-.197.131-.198.127-.198.13-.197.13-.195.131-.195.129-.195.133-.195.131-.193.132-.192.132-.192.133-.19.133-.193.135-.188.136-.189.135-.19.135-.188.135-.188.136-.188.137-.185.135-.186.139-.185.137-.185.141-.183.137-.185.141-.18.137-.183.141-.182.143-.18.141-.18.139-.178.143-.177.141-.18.145-.177.143-.175.143-.178.143-.175.146-.175.145-.173.146-.175.145-.172.145-.17.145-.172.148-.17.147-.172.147-.17.148-.167.146-.17.147-.167.149-.168.15-.165.148-.168.149-.165.152-.165.149-.166.154-.162.149-.163.152-.163.152-.162.152-.16.152-.16.155-.16.152-.16.155-.158.155-.16.154-.157.156-.155.154-.158.156-.155.158-.155.158-.155.156-.155.158-.152.157-.152.161-.153.156-.15.16-.152.158-.15.162-.15.16-.15.16-.147.16-.147.162-.147.162-.147.162-.145.16-.148.166-.145.162-.145.164-.143.164-.145.164-.14.165-.143.165-.142.165-.143.165-.14.168-.14.165-.138.167-.14.168-.138.167-.137.167-.138.168-.137.17-.135.168-.135.17-.135.167-.135.173-.133.17-.132.17-.132.17-.133.173-.132.17-.13.173-.13.172-.13.172-.13.174-.127.174-.13.173-.125.173-.127.176-.127.174-.125.176-.125.175-.125.175-.125.175-.122.175-.123.178-.123.178-.123.178-.123.178-.12.177-.12.179-.12.176-.12.182-.118.176-.12.182-.117.179-.115.179-.118.182-.118.18-.115.181-.115.179-.113.184-.115.183-.112.18-.113.183-.112.183-.112.183-.11.185-.112.183-.11.183-.11.185-.107.186-.11.182-.107.186-.108.186-.107.185-.105.188-.105.185-.107.186-.105.188-.103.188-.105.186-.103.189-.103.188-.103.188-.103.188-.1.188-.103.189-.1.188-.1.19-.097.19-.101.189-.097.189-.098.191-.097.189-.095.189-.098.193-.095.189-.095.192-.095.192-.093.193-.095.189-.093.192-.092.195-.093.192-.09.192-.092.195-.09.192-.09.191-.09.196-.087.194-.09.195-.087.195-.087.194-.087.196-.085.196-.085.196-.087.193-.085.197-.083.198-.085.194-.083.198-.085.197-.083.198-.08.197-.083.197-.08.197-.083.199-.08.201-.078.197-.08.199-.078.199-.08.199-.078.199-.078.201-.075.199-.078.2-.075.2-.075.203-.075.199-.075.2-.072.202-.073.203-.075.201-.07.201-.072.203-.073.202-.07.202-.07.202-.07.205-.07.202-.067.203-.07.205-.067.202-.067.205-.067.205-.067.202-.065.205-.065.205-.065.205-.065.203-.065.207-.065.205-.062.205-.063.205-.063.207-.063.205-.06.208-.063.205-.06.208-.06.205-.06.207-.058.207-.06.207-.057.208-.058.208-.058.209-.058.207-.055.208-.058.208-.055.207-.055.211-.055.207-.055.21-.052.208-.053.209-.052.207-.052.211-.053.211-.053.209-.05.21-.05.21-.05.21-.05.21-.05.211-.047.209-.05.21-.048.212-.047.213-.047.211-.045.209-.048.213-.044.211-.045.211-.045.213-.045.213-.042.21-.045.212-.042.213-.042.213-.042.212-.041.214-.042.211-.04.213-.04.213-.04.213-.04.211-.04.217-.038.211-.04.213-.038.213-.037.215-.038.213-.073.43-.07.428-.07.428-.068.428-.065.43-.065.43-.063.43-.063.431-.057.431-.058.429-.057.433-.053.43-.055.434-.05.43-.05.433-.047.433-.045.432-.044.434-.045.432-.04.433-.04.435-.037.433-.038.433-.035.436-.035.432-.03.436-.032.436-.028.432-.027.436-.025.435-.025.433-.022.436-.022.435-.018.435-.02.433-.016.435-.017.436-.013.436-.013.432-.01.436-.01.435-.008.435-.007.436-.002.434-.005.434-.002.434v.434l.002.436v.433l.005.433.005.436.007.432.008.434.01.434.01.434.013.432.012.433.015.431.018.432.018.433.018.431.022.432.02.43.022.431.025.431.025.43.027.43.03.428.028.43.032.428.033.428.032.43.035.428.038.426.035.426.04.426.04.428.041.422.042.426.044.425.045.425.045.422.047.423.05.423.048.423.053.419.052.42.052.421.055.419.055.422.058.414.025.178.025.174.025.176.028.175.03.181.027.18.033.18.03.181.033.182.032.183.035.186.035.188.037.188.035.186.04.189.038.189.04.189.042.191.04.192.042.194.045.192.042.196.045.196.048.196.047.199.047.197.047.199.05.201.05.202.053.202.05.203.052.202.055.204.052.205.055.205.055.208.058.21.057.207.058.208.058.21.06.213.06.209.06.214.063.212.063.213.062.213.127.432.13.434.13.434.135.438.137.441.138.443.143.445.142.447.145.448.148.452.147.453.15.455.152.457.155.46.155.462.155.463.157.465.16.465.16.468.16.47.163.471.327.947.331.95.667 1.918.338.961.335.969.337.971.167.486.167.488.167.487.165.487.167.488.165.489.165.487.165.49.163.49.163.489.162.489.16.492.16.492.158.489.158.489.155.49.155.49.152.492.15.49.15.49.147.488.145.489.143.487.073.245.07.245.07.244.07.243.068.245.07.242.067.245.068.243.065.242.067.244.065.243.065.243.062.242.065.242.062.242.063.243.06.241.063.24.06.242.06.243.058.24.058.243.057.24.058.238.055.24.055.242.055.238.053.24.052.239.053.24.05.24.05.237.05.24.05.237.045.237.047.238.048.236.045.238.042.238.042.236.042.236.042.234.04.237.04.235.038.234.037.236.035.234.035.234.035.232.032.236.033.231.033.235.03.232.027.232.028.23.027.232.025.231.025.231.025.231.02.229.023.229.02.232.018.227.018.23.015.23.015.225.015.23.013.227.01.229.01.227.007.225.007.229.008.225.002.225.005.225v.675l-.002.223-.005.223-.005.223-.008.223-.007.219-.01.223-.012.221-.013.22-.015.223-.018.217-.018.22-.02.219-.02.217-.025.221-.022.214-.025.208-.1.793-.095.777-.095.771-.09.766-.09.763-.088.753-.085.75-.082.744-.083.738-.08.734-.078.728-.072.722-.075.719-.07.713-.067.707-.068.702-.065.694-.06.693-.06.689-.03.34-.027.343-.03.337-.027.338-.025.338-.028.338-.025.334-.025.334-.025.332-.025.33-.023.33-.025.329-.022.328-.02.327-.022.326-.02.324-.02.322-.02.322-.02.323-.018.319-.018.32-.012.302-.018.313-.015.317-.018.315-.015.313-.013.311-.015.313-.012.313-.013.307-.012.311-.013.307-.01.309-.01.305-.01.303-.01.305-.007.302-.007.302-.008.301-.008.3-.007.3-.005.298-.005.298-.005.297-.002.293-.002.295-.002.295-.002.293-.002.289v1.16l.002.285.002.289.002.284.002.284.005.285.005.283.005.281.005.281.008.281.007.281.007.279.008.277.01.278.01.278.01.273.01.275.012.275.013.274.012.272.013.272.015.271.015.271.015.271.015.27.018.268.018.27.018.268.017.268.02.268.02.264.02.264.02.266.022.262.022.266.022.262.025.264.023.26.025.26.025.263.028.257.027.26.028.26.027.258.03.258.027.258.03.255.032.255.03.255.033.255.033.255.035.255.032.252.035.254.035.252.037.253.038.249.037.254.038.25.038.249.04.251.04.25.042.246.04.25.042.248.042.248.045.247.042.247.045.245.048.247.045.246.047.248.047.244.048.245.05.245.05.242.05.245.053.243.05.244.055.242.053.243.053.245.055.242.055.24.057.242.058.242.057.24.058.242.06.242.06.24.06.24.06.24.063.242.062.24.063.24.065.24.065.24.065.238.067.24.067.24.067.238.068.24.07.236.07.24.07.238.072.239.073.24.072.237.073.24.075.237.075.24.078.237.075.24.078.237.08.237.078.24.08.24.08.237.083.237.083.24.083.24.085.237.083.24.087.237.085.24.088.24.087.237.087.24.09.24.09.239.09.24.093.24.092.238.092.242.095.236.095.242.095.24.095.24.098.243.1.24.098.239.1.242.1.242.103.243.103.243.103.24.103.244.105.242.105.243.107.243.107.244.108.242.107.246.112.244.11.245.11.245.112.244.113.246.115.244.115.248.115.248.117.244.115.248.12.25.117.246.12.246.047.098.045.096.047.094.047.094.05.094.047.096.05.092.05.098.05.093.05.093.052.098.053.092.052.096.052.094.055.094.053.094.055.094.055.094.058.096.057.095.055.093.058.092.058.096.06.095.06.093.06.095.06.093.06.095.063.095.06.093.065.093.063.092.063.096.065.095.065.093.065.092.065.096.067.092.065.094.07.094.067.094.068.092.067.093.073.095.07.093.07.093.072.092.07.094.072.092.075.096.073.092.072.09.075.096.075.092.075.091.078.091.075.094.08.094.075.091.077.093.08.092.08.094.08.09.08.092.08.094.082.092.083.09.082.092.083.09.083.094.085.09.085.092.083.091.087.091.087.092.087.092.085.09.087.09.09.091.087.091.09.088.09.094.09.09.09.09.093.09.09.091.093.089.092.088.095.09.095.091.093.091.095.088.098.088.095.091.095.088.097.089.1.09.098.088.098.091.097.085.203.18.2.175.205.175.205.176.208.174.21.176.21.173.215.175.215.172.217.172.218.17.223.174.222.17.225.17.228.17.23.168.23.17.232.168.235.167.235.164.24.167.24.166.242.165.243.163.245.164.248.162.25.164.252.158.252.164.255.16.255.159.257.158.26.157.263.159.265.155.265.158.265.154.27.156.27.152.272.154.272.152.278.15.275.152.28.149.28.149.282.148.283.147.285.147.288.148.29.144.29.146.29.143.295.143.295.143.297.143.298.14.3.141.3.14.302.137.305.139.308.135.305.135.31.135.31.135.313.133.312.133.315.131.317.129.317.129.318.129.322.127.323.128.322.126.325.123.325.123.328.123.329.123.331.119.333.121.332.119.334.117.335.118.337.114.337.115.34.115.343.112.343.11.342.112.345.11.347.106.348.108.347.107.351.104.352.105.352.105.353.103.355.1.357.101.357.1.357.098.36.098.36.098.362.096.362.092.366.093.364.093.368.089.367.091.368.088.37.088.373.084.37.086.375.084.372.083.375.079.378.08.377.08.378.077.38.079.38.074.382.075.383.071.382.072.385.07.385.07.387.067.388.067.387.064.39.066.388.063.393.063.393.063.393.06.393.058.395.057.395.056.397.056.397.053.398.053.4.049.399.051.4.047.4.047.402.047.403.044.404.042.405.043.405.041.405.039.408.037.407.035.41.035.407.035.41.029.41.033.413.029.413.028.412.026.413.026.415.022.415.024.415.021.416.02.417.018.417.018.417.016.42.015.417.012.419.013.421.011.422.007.42.008.423.006.423.004.424.002.423.003h.422l.427-.003.425-.002.425-.004.425-.006.428-.01.428-.008.427-.01.43-.014.427-.012.43-.018.43-.015.43-.018.43-.021.43-.021.43-.023.432-.022.433-.026.432-.029.433-.026.436-.03.432-.033.433-.031.435-.035.435-.037.435-.038.435-.04.435-.043.438-.043.432-.044.14-.015.152-.018.165-.018.176-.023.19-.023.2-.029.21-.029.223-.029.235-.035.245-.038.255-.04.265-.042.275-.046.285-.047.295-.053.305-.053.313-.057.322-.061.333-.063.34-.067.348-.067.357-.073.367-.075.373-.08.382-.079.387-.085.398-.09.404-.092.203-.047.207-.049.211-.048.207-.05.213-.05.215-.053.211-.053.219-.053.217-.056.221-.055.223-.055.223-.058.225-.058.225-.06.229-.06.229-.061.23-.063.232-.063.232-.063.236-.064.236-.064.234-.068.24-.066.24-.068.242-.07.244-.07.242-.069.244-.073.248-.074.248-.075.246-.075.25-.074.25-.078.252-.077.254-.081.256-.082.254-.08.256-.082.256-.082.258-.086.26-.087.26-.088.264-.088.26-.087.262-.09.266-.093.262-.093.266-.092.268-.096.266-.095.268-.097.27-.098.268-.099.27-.1.27-.103.271-.103.271-.103.271-.105.273-.105.273-.105.271-.108.273-.11.273-.109.275-.113.275-.112.277-.112.275-.115.277-.117.277-.117.277-.118.277-.12.277-.123.279-.121.279-.123.277-.125.279-.125.281-.127.277-.131.279-.127.279-.133.281-.133.279-.133.281-.135.277-.135.279-.138.279-.14.281-.139.279-.141.281-.144.279-.144.279-.146.277-.145.281-.148.279-.149.279-.149.277-.152.279-.152.279-.152.277-.158.277-.155.277-.159.277-.16.277-.16.277-.162.275-.164.275-.164.275-.167.275-.167.273-.168.273-.172.275-.17.271-.174.273-.175.27-.177.271-.178.271-.178.27-.18.268-.184.27-.182.268-.186.268-.185.266-.188.264-.19.266-.189.266-.191.262-.191.264-.195.262-.197.26-.197.26-.197.131-.1.129-.102.129-.1.127-.102.131-.102.129-.102.127-.104.129-.102.127-.104.127-.102.129-.105.127-.102.125-.105.127-.104.125-.105.127-.104.125-.107.125-.105.125-.107.125-.105.125-.107.123-.107.125-.107.125-.109.123-.107.123-.111.121-.109.123-.11.123-.108.121-.111.123-.111.121-.111.119-.111.123-.113.119-.112.121-.112.119-.115.119-.112.119-.114.119-.113.117-.115.119-.117.119-.115.117-.115.117-.117.115-.117.117-.115.115-.117.117-.12.115-.118.115-.119.115-.117.115-.121.111-.119.115-.12.113-.12.115-.123.111-.123.111-.119.111-.123.113-.121.109-.126.113-.123.109-.122.109-.125.111-.125.109-.125.107-.125.109-.128.107-.124.107-.128.107-.128.109-.127.104-.125.107-.133.107-.127.104-.128.105-.13.104-.131.105-.129.105-.133.102-.131.104-.129.102-.133.104-.133.1-.133.102-.135.104-.132.1-.135.1-.136.098-.133.102-.137.1-.135.096-.135.1-.139.096-.137.098-.135.098-.141.096-.137.094-.138.096-.141.096-.14.096-.141.092-.139.096-.141.092-.143.092-.141.09-.142.094-.144.092-.143.09-.145.09-.145.09-.143.088-.145.09-.146.088-.146.088-.145.088-.146.086-.148.086-.147.084-.147.086-.148.084-.146.086-.15.082-.15.086-.15.082-.149.082-.149.08-.152.082-.152.08-.15.08-.152.08-.152.08-.156.078-.154.078-.152.076-.157.078-.152.074-.158.09-.183.043-.087.037-.075.055-.109.074-.146.082-.174.1-.207.115-.24.125-.268.141-.301.152-.328.162-.359.086-.188.086-.194.09-.202.094-.208.094-.218.098-.223.102-.228.1-.234.105-.243.104-.248.107-.252.111-.26.109-.268.113-.271.113-.276.115-.283.117-.29.121-.296.119-.299.121-.305.121-.311.123-.314.125-.322.125-.326.125-.332.127-.334.125-.34.131-.346.127-.352.127-.354.131-.361.127-.361.131-.368.131-.372.129-.378.131-.38.127-.385.131-.387.127-.393.129-.396.129-.399.127-.403.127-.407.125-.41.125-.416.063-.205.063-.207.063-.209.063-.211.061-.211.063-.211.061-.215.059-.213.061-.213.061-.215.061-.215.059-.217.061-.216.059-.217.059-.218.059-.221.057-.219.059-.221.057-.221.057-.219.057-.223.055-.223.057-.223.055-.225.053-.223.055-.225.057-.226.053-.226.051-.227.053-.228.051-.226.053-.227.049-.23.051-.229.051-.229.049-.229.047-.229.051-.231.047-.229.045-.232.049-.232.045-.23.045-.232.045-.232.045-.232.043-.232.041-.234.043-.234.039-.234.041-.234.041-.234.039-.234.039-.234.039-.237.037-.234.035-.235.037-.238.031-.234.035-.238.035-.236.033-.235.031-.237.031-.234.029-.238.031-.238.027-.236.029-.238.025-.238.027-.236.025-.238.025-.237.021-.237.023-.24.021-.237.023-.237.02-.237.018-.237.02-.237.018-.237.016-.238.018-.236.012-.238.016-.238.012-.236.01-.238.014-.238.01-.236.008-.235.008-.237.008-.237.004-.235.006-.236.002-.236.002-.238.004-.234v-.468l-.004-.236-.002-.234-.002-.232-.006-.234-.008-.236-.008-.232-.004-.254-.012-.232-.01-.232-.012-.232-.014-.232-.014-.23-.016-.232-.014-.229-.018-.229-.021-.23-.02-.23-.02-.227-.023-.229-.025-.23-.023-.232-.043-.381-.041-.393-.043-.385-.039-.385-.043-.383-.039-.383-.041-.379-.037-.381-.041-.378-.037-.378-.037-.377-.035-.375-.037-.373-.035-.375-.035-.369-.035-.369-.031-.371-.033-.367-.033-.367-.031-.365-.033-.365-.029-.365-.031-.362-.029-.36-.029-.359-.029-.359-.027-.359-.027-.357-.027-.354-.027-.354-.025-.354-.023-.353-.025-.351-.025-.351-.023-.35-.023-.348-.023-.347-.021-.349-.021-.344-.021-.346-.041-.682-.037-.68-.037-.678-.035-.673-.033-.668-.029-.665-.029-.66-.025-.654-.025-.652-.021-.648-.023-.645-.018-.64-.018-.636-.016-.633-.014-.627-.01-.625-.012-.623-.01-.617-.004-.613-.006-.609-.002-.604-.002-.604v-.6l.002-.596.004-.59.006-.588.006-.584.01-.582.01-.578.01-.573.012-.571.016-.565.016-.565.018-.56.02-.558.02-.556.023-.55.021-.547.025-.545.025-.541.027-.539.027-.535.029-.531.031-.529.031-.525.033-.524.035-.517.035-.518.037-.516.037-.51.041-.508.039-.506.041-.502.041-.5.043-.498.045-.494.045-.49.049-.489.047-.485.047-.484.051-.48.049-.478.051-.478.053-.473.053-.471.053-.467.055-.468.055-.462.055-.461.059-.46.057-.454.059-.455.059-.45.059-.45.061-.447.061-.443.061-.441.063-.443.063-.438.063-.434.063-.437.064-.433.066-.43.063-.427.066-.425.066-.425.064-.423.066-.421.068-.417.068-.415.066-.414.068-.413.066-.413.068-.407.07-.407.066-.404.07-.406.068-.402.139-.8.141-.792.137-.787.141-.783.141-.777.139-.771.141-.765.275-1.516.275-1.497.135-.743.133-.739.135-.735.129-.729.131-.728.127-.725.125-.725.061-.357.063-.361.061-.357.059-.359.061-.357.061-.357.057-.357.059-.355.057-.355.055-.357.059-.355.053-.354.055-.354.053-.354.051-.354.053-.353.051-.354.049-.353.051-.355.049-.353.047-.353.047-.355.045-.352.045-.353.043-.354.043-.354.041-.352.041-.355.041-.352.037-.355.037-.354.035-.354.037-.354.033-.355.031-.355.033-.357.029-.357.031-.355.027-.357.027-.357.025-.359.023-.357.023-.359.021-.361.021-.361.02-.363.018-.362.018-.362.016-.362.012-.366.012-.366.014-.366.01-.367.008-.369.004-.371.006-.369.004-.373.002-.371v-.375l-.002-.375-.002-.379-.004-.377-.006-.378-.008-.38-.01-.382-.01-.384-.012-.384-.016-.388-.018-.389-.018-.387-.02-.39-.023-.393-.023-.397-.012-.195-.012-.197-.014-.197-.014-.199-.016-.201-.012-.2-.016-.199-.018-.2-.016-.201-.018-.199-.018-.202-.018-.202-.018-.203-.016-.205-.021-.203-.02-.201-.02-.209-.02-.203-.023-.205-.02-.205-.023-.208-.021-.208-.023-.205-.025-.21-.023-.208-.023-.209-.027-.211-.025-.209-.025-.21-.043-.225-.027-.211-.027-.211-.027-.213-.029-.215-.031-.215-.029-.213-.031-.214-.031-.216-.029-.217-.033-.218-.033-.216-.035-.219-.031-.219-.035-.217-.035-.22-.035-.22-.037-.223-.035-.221-.037-.222-.041-.223-.037-.223-.041-.226-.037-.225-.041-.225-.041-.225-.043-.226-.039-.228-.045-.227-.061-.32-.061-.32-.063-.32-.063-.322-.064-.32-.064-.322-.064-.322-.068-.326-.068-.322-.066-.324-.07-.324-.07-.326-.07-.327-.072-.325-.072-.328-.072-.327-.074-.327-.076-.327-.074-.328-.086-.327-.078-.327-.078-.33-.082-.33-.078-.33-.08-.33-.084-.33-.084-.33-.084-.33-.084-.33-.088-.332-.086-.33-.088-.33-.088-.332-.09-.33-.09-.333-.094-.333-.092-.329-.092-.331-.096-.331-.096-.333-.098-.33-.098-.33-.096-.332-.102-.33-.1-.332-.1-.33-.102-.33-.104-.33-.105-.33-.105-.33-.104-.33-.107-.33-.107-.328-.111-.33-.107-.326-.111-.328-.113-.328-.113-.327-.111-.327-.115-.324-.115-.328-.117-.325-.117-.325-.121-.325-.119-.325-.121-.322-.121-.322-.123-.325-.123-.319-.125-.32-.125-.322-.127-.32-.127-.32-.131-.316-.129-.318-.131-.317-.133-.317-.133-.315-.135-.315-.135-.314-.135-.313-.137-.314-.139-.311-.139-.311-.141-.313-.141-.307-.143-.309-.145-.307-.143-.307-.148-.307-.145-.305-.146-.303-.15-.302-.148-.302-.152-.301-.148-.297-.152-.299-.156-.297-.154-.298-.156-.292-.156-.295-.158-.293-.16-.289-.16-.291-.162-.287-.162-.287-.162-.288-.166-.282-.164-.285-.168-.283-.168-.279-.168-.28-.17-.277-.17-.274-.172-.277-.172-.273-.176-.271-.088-.135-.088-.137-.086-.135-.09-.135-.088-.133-.088-.135-.09-.132-.09-.132-.088-.133-.092-.133-.092-.133-.088-.129-.092-.131-.09-.133-.092-.129-.09-.131-.094-.127-.092-.131-.092-.127-.094-.131-.092-.127-.092-.127-.105-.141-.102-.14-.105-.144-.105-.139-.105-.141-.107-.14-.105-.141-.104-.138-.107-.14-.109-.138-.105-.139-.109-.139-.109-.137-.107-.138-.109-.138-.109-.138-.111-.138-.107-.135-.111-.138-.111-.138-.111-.135-.111-.135-.111-.135-.113-.138-.113-.135-.111-.134-.115-.135-.113-.135-.113-.133-.113-.135-.115-.132-.117-.132-.115-.133-.115-.133-.117-.133-.115-.133-.117-.133-.117-.129-.117-.133-.119-.131-.117-.129-.119-.133-.117-.127-.121-.131-.119-.129-.121-.131-.119-.13-.119-.128-.121-.127-.123-.131-.121-.127-.121-.125-.246-.258-.246-.252-.248-.253-.25-.249-.25-.25-.252-.251-.252-.247-.256-.248-.254-.244-.256-.245-.26-.243-.26-.242-.26-.242-.26-.24-.266-.238-.262-.236-.266-.238-.268-.234-.268-.235-.27-.231-.271-.234-.271-.229-.273-.23-.271-.227-.275-.23-.277-.226-.277-.226-.277-.225-.279-.223-.281-.219-.281-.221-.283-.221-.283-.217-.287-.218-.285-.214-.287-.217-.287-.211-.291-.213-.289-.211-.293-.209-.293-.211-.291-.207-.297-.205-.295-.205-.297-.203-.297-.201-.297-.203-.301-.199-.301-.198-.303-.197-.303-.198-.301-.194-.307-.192-.305-.193-.307-.191-.309-.19-.307-.188-.311-.188-.307-.188-.313-.185-.313-.184-.313-.182-.313-.183-.314-.181-.316-.177-.314-.178-.316-.177-.318-.173-.318-.175-.318-.174-.32-.17-.324-.17-.318-.167-.322-.167-.326-.168-.322-.162-.324-.165-.326-.161-.328-.161-.326-.158-.328-.159-.326-.156-.332-.154-.328-.154-.33-.152-.332-.15-.334-.15-.332-.15-.332-.146-.336-.146-.334-.145-.336-.143-.334-.143-.338-.139-.338-.141-.338-.138-.338-.138-.34-.135-.34-.133-.34-.133-.34-.13-.342-.13-.34-.127-.344-.127-.344-.126-.344-.125-.346-.122-.342-.123-.344-.119-.348-.117-.346-.119-.348-.115-.348-.114-.352-.105-.348-.113-.348-.109-.35-.107-.348-.107-.35-.105-.35-.104-.354-.104-.35-.102-.352-.102-.35-.1-.354-.098-.352-.094-.354-.096-.352-.092-.355-.094-.355-.09-.352-.088-.355-.086-.355-.086-.355-.084-.354-.084-.357-.082-.356-.08-.357-.078-.355-.077-.357-.075-.357-.074-.357-.072-.358-.07-.357-.07-.357-.067-.359-.067-.357-.065-.36-.062-.357-.063-.36-.063-.357-.058-.36-.057-.36-.059-.36-.055-.36-.053-.36-.051-.36-.051-.359-.048-.36-.048-.36-.045-.36-.045-.363-.042-.36-.04-.359-.041-.363-.037-.36-.037-.36-.035-.363-.032-.36-.032-.362-.029-.36-.031-.363-.027-.36-.025-.36-.024-.362-.022-.36-.02-.363-.021-.36-.016-.36-.018-.363-.016-.36-.014-.359-.012-.36-.01-.363-.008-.36-.008-.36-.004-.36-.006-.359-.002h-.36l-.363.001z"/>
  <path fill="#81A1C1" d="M405.39 427.467c65.296 15.197 76.716-22.895 78.96-31.174 4.229-15.596 6.275-45.828 2.479-61.904-1.32-5.581-3.813-11.939-8.061-16.559-9.33-10.158-51.065-11.041-66.665-8.656-6.248.955-11.888 3.116-17.471 5.483-19.422 8.238-26.267 104.193 10.758 112.81z"/>
  <g opacity=".2" fill="#D8DEE9">
    <circle cx="501.424" cy="260.737" r="2.725"/>
    <circle cx="366.163" cy="265.687" r="2.725"/>
    <path d="M462.451 185.396c-2.438-1.754-5.158-2.15-6.066-.885-.91 1.264.332 3.715 2.773 5.467 2.438 1.752 5.156 2.15 6.064.885.911-1.266-.331-3.716-2.771-5.467zm-75.129 1.051c-2.417 1.782-3.627 4.247-2.703 5.503.926 1.252 3.637.822 6.055-.963 2.415-1.783 3.628-4.247 2.703-5.5-.925-1.255-3.637-.822-6.055.96z"/>
  </g>
  <path fill="#4C566A" d="M416.73 293.973c-24.655-18.026.955-34.341 17.657-22.828 12.404 8.546 33.63-10.61 42.662-.902 9.027 9.706-2.547 19.96-2.547 19.96-18.117 16.064-38.165 18.102-57.772 3.77z"/>
  <path fill="#ECEFF4" d="M454.201 275.995c-.701 4.042-.432 11.542-2.525 14.969-1.016 1.664-3.496 1.901-5.113 2.059-9.288.897-9.76-8.647-11.678-16.851"/>
  <path fill="#4C566A" d="M454.273 273.522l.137.008.135.014.135.025.133.03.131.038.129.042.127.052.123.059.121.067.113.07.113.077.107.084.104.091.098.095.092.1.084.107.082.111.074.111.066.121.063.119.053.125.049.127.041.133.033.133.025.133.02.135.01.135.002.138-.002.138-.012.135-.02.135-.016.091-.012.082-.016.085-.014.085-.012.091-.012.088-.029.188-.021.191-.025.197-.021.205-.025.207-.02.216-.023.218-.021.225-.021.229-.02.229-.02.238-.021.24-.02.242-.037.495-.039.507-.041.518-.039.525-.023.266-.02.268-.021.267-.025.271-.025.266-.025.272-.025.272-.027.272-.027.272-.029.275-.029.271-.033.275-.033.273-.037.274-.035.271-.02.137-.02.138-.02.136-.021.135-.02.137-.023.135-.021.136-.023.135-.021.136-.025.133-.025.135-.023.132-.025.135-.027.133-.025.132-.027.133-.031.133-.027.133-.029.131-.033.132-.029.13-.033.129-.031.131-.035.13-.035.128-.035.129-.037.129-.039.127-.037.127-.039.125-.043.128-.041.126-.041.124-.045.125-.045.126-.049.121-.047.123-.049.123-.051.122-.053.12-.053.12-.055.122-.055.121-.059.117-.059.117-.063.117-.063.117-.066.117-.066.115-.068.115-.045.072-.047.07-.045.07-.047.069-.051.07-.051.067-.049.063-.049.063-.055.068-.053.064-.055.063-.053.061-.055.057-.055.058-.055.058-.059.057-.057.056-.059.056-.055.053-.057.049-.061.055-.057.049-.061.047-.063.05-.057.048-.061.045-.063.045-.059.043-.063.042-.059.042-.063.043-.063.041-.061.037-.061.037-.059.037-.066.038-.061.034-.059.035-.066.035-.064.035-.119.063-.123.061-.123.057-.121.056-.125.052-.123.051-.121.047-.121.045-.123.045-.119.041-.121.039-.119.038-.117.032-.119.035-.119.032-.115.027-.117.03-.115.027-.113.025-.115.024-.111.022-.109.023-.111.02-.107.02-.109.018-.109.018-.104.018-.105.016-.102.014-.105.016-.1.014-.1.012-.191.025-.189.02-.18.02-.176.018-.324.033-.123.01-.127.013-.127.009-.129.009-.125.007-.127.008-.125.006-.123.002-.123.004h-.127l-.119.003h-.123l-.123-.003-.121-.002-.121-.002-.119-.006-.12-.005-.12-.007-.117-.008-.118-.01-.117-.01-.118-.013-.118-.013-.115-.013-.115-.015-.115-.018-.115-.018-.115-.018-.113-.02-.112-.02-.112-.023-.113-.023-.11-.023-.11-.025-.11-.025-.11-.027-.107-.03-.107-.026-.107-.033-.108-.033-.107-.032-.105-.034-.103-.035-.105-.035-.105-.04-.102-.038-.1-.039-.103-.041-.1-.043-.103-.041-.097-.045-.098-.046-.097-.047-.097-.046-.098-.049-.095-.051-.095-.051-.093-.049-.093-.053-.092-.053-.092-.055-.092-.055-.088-.059-.09-.055-.088-.06-.087-.058-.085-.06-.087-.063-.086-.06-.082-.062-.083-.063-.083-.065-.083-.064-.08-.064-.08-.064-.078-.068-.078-.068-.08-.068-.075-.068-.075-.07-.075-.07-.073-.069-.072-.075-.073-.072-.072-.072-.07-.073-.068-.075-.07-.074-.067-.076-.067-.074-.065-.078-.065-.076-.065-.076-.065-.079-.063-.081-.062-.076-.06-.08-.063-.08-.058-.08-.06-.08-.058-.08-.06-.082-.058-.084-.055-.082-.055-.082-.055-.082-.055-.086-.053-.084-.053-.082-.052-.086-.052-.086-.051-.084-.05-.086-.05-.084-.05-.09-.047-.085-.047-.085-.047-.088-.045-.088-.047-.09-.045-.088-.045-.086-.045-.091-.043-.088-.044-.09-.042-.087-.041-.09-.042-.091-.042-.091-.04-.09-.04-.092-.04-.09-.041-.092-.04-.094-.075-.18-.073-.186-.075-.185-.07-.185-.07-.186-.068-.189-.064-.188-.066-.188-.064-.19-.063-.19-.061-.189-.06-.192-.058-.19-.057-.192-.058-.192-.055-.195-.053-.191-.055-.193-.05-.195-.052-.197-.05-.192-.05-.196-.048-.196-.05-.196-.044-.196-.048-.196-.047-.199-.046-.193-.044-.199-.042-.196-.045-.2-.084-.393-.085-.395-.082-.396-.083-.393-.083-.396-.16-.782-.081-.39-.08-.387-.08-.387-.083-.384-.082-.38-.04-.19-.043-.188-.042-.188-.04-.188-.042-.185-.045-.19-.027-.133-.02-.135-.013-.138-.005-.135.002-.138.013-.135.018-.135.025-.135.033-.134.04-.129.044-.127.055-.126.06-.122.067-.121.073-.111.08-.113.088-.104.09-.102.097-.098.102-.09.108-.084.11-.078.117-.072.118-.065.125-.06.125-.053.127-.045.133-.037.132-.033.135-.021.135-.016.135-.01h.138l.135.005.137.015.132.023.135.027.13.037.129.043.128.049.123.059.119.063.117.072.113.074.108.086.105.088.097.094.092.1.087.105.083.107.075.115.07.117.063.12.055.126.05.127.041.131.035.132.045.194.047.201.045.199.044.199.042.201.045.199.085.398.085.396.083.398.083.395.08.393.16.783.08.387.08.383.08.382.083.378.08.375.042.185.041.185.042.184.042.186.042.18.043.18.042.18.042.178.045.175.045.175.045.176.045.172.045.17.048.17.045.168.047.164.047.166.05.162.051.162.047.16.052.158.05.154.052.156.053.149.052.149.053.148.055.146.055.143.055.143.057.141.058.139.027.066.03.067.027.064.03.067.03.064.031.066.03.063.03.064.03.063.03.064.03.063.03.058.032.063.03.062.031.058.032.058.033.061.03.058.032.057.033.056.032.056.033.057.032.055.033.053.032.053.033.053.032.053.033.049.035.051.035.053.032.05.033.047.035.048.032.047.035.046.035.047.035.045.035.046.035.044.032.044.035.041.038.043.035.043.035.039.035.043.035.037.037.041.038.039.035.037.038.038.035.035.035.035.038.038.04.035.035.033.038.035.038.033.038.033.037.031.04.033.038.029.038.03.04.03.04.03.04.029.037.03.04.027.041.027.04.027.04.025.043.027.042.028.041.022.042.024.043.024.042.025.043.023.044.024.045.022.043.023.045.02.045.021.045.021.047.022.047.02.045.018.05.021.047.021.05.018.05.018.05.017.053.021.05.015.05.018.055.015.053.016.055.015.055.015.055.016.058.013.058.013.057.012.061.014.057.012.06.01.063.01.062.01.065.01.063.011.065.007.067.008.065.008.067.008.068.005.069.005.073.005.07.005.072.003.074.005h.074l.074.002h.312l.08-.002.08-.002.082-.006.084-.002.084-.006.088-.007.084-.005.088-.008.094-.01.299-.027.152-.018.152-.016.152-.018.156-.02.074-.008.076-.01.072-.012.074-.011.074-.01.076-.013.072-.013.07-.013.072-.012.072-.014.07-.014.07-.016.066-.013.068-.015.064-.018.064-.015.066-.018.063-.015.059-.018.064-.018.057-.021.055-.018.055-.018.053-.021.051-.018.053-.02.047-.02.043-.018.045-.02.041-.021.041-.021.041-.021.012-.008.018-.008.018-.01.018-.01.014-.008.016-.01.016-.01.014-.01.014-.008.012-.008.014-.01.012-.008.014-.01.01-.008.01-.008.012-.01.006-.005.01-.007.01-.011.008-.005.006-.008.012-.008.006-.006.006-.006.006-.006.006-.006.006-.006.008-.008.004-.007.006-.005.002-.004.004-.004.004-.005.008-.011.002-.002.004-.005.002-.003.004-.008.004-.004.002-.006.029-.047.027-.051.031-.052.029-.053.027-.058.031-.057.029-.061.027-.063.029-.063.031-.068.029-.07.027-.068.031-.07.027-.076.029-.076.027-.078.027-.077.027-.081.027-.084.027-.086.027-.084.027-.088.025-.09.027-.093.025-.089.025-.096.025-.096.025-.095.023-.101.025-.1.023-.1.021-.103.023-.103.021-.105.023-.105.021-.105.021-.108.021-.108.02-.109.02-.109.021-.113.02-.112.018-.115.02-.114.018-.113.018-.115.021-.117.016-.119.016-.118.018-.117.033-.243.031-.242.031-.244.027-.251.027-.247.027-.252.025-.254.023-.252.025-.258.023-.254.021-.258.023-.258.023-.258.02-.257.021-.258.041-.519.037-.514.039-.51.041-.508.02-.25.02-.25.023-.25.021-.246.021-.244.023-.242.023-.242.025-.238.025-.238.027-.231.027-.233.029-.229.033-.223.014-.114.018-.113.018-.109.018-.113.018-.109.018-.1.025-.135.035-.131.039-.133.051-.127.055-.122.061-.123.07-.117.074-.114.08-.111.088-.105.092-.1.098-.094.104-.088.109-.085.109-.078.117-.069.121-.066.123-.057.127-.051.129-.045.131-.037.133-.029.135-.021.15-.008.139-.008h.134zm-13.065-28.091c-7.55.464-13.437 4.736-13.143 9.533.295 4.801 6.663 8.318 14.21 7.855 7.551-.465 13.438-4.737 13.143-9.537-.295-4.797-6.662-8.314-14.21-7.851z"/>
  <path fill="#4C566A" d="M442.657 257.732l.108.007.11.014.107.018.107.021.105.025.104.032.105.035.1.04.1.045.098.05.097.053.093.058.09.063.087.064.085.07.081.076.08.074.073.08.072.084.067.086.063.09.06.093.055.095.05.096.047.1.043.1.038.103.032.104.027.105.025.107.02.107.012.109.01.107.006.111.002.189.006.183.004.183.008.182.004.184.008.182.01.186.008.18.01.186.014.182.01.184.012.184.014.184.012.185.016.183.012.186.016.182.016.186.016.185.016.183.035.373.035.373.037.369.041.372.039.375.041.375.043.375.041.378.086.76.088.764.041.381.043.389.043.385.039.39.041.39.037.393.037.393.018.2.018.195.018.2.018.199.016.198.016.196.004.108.002.11-.004.109-.008.109-.012.107-.021.108-.021.108-.027.104-.033.105-.037.103-.041.103-.045.1-.049.098-.057.096-.059.092-.063.09-.066.086-.068.084-.076.08-.076.078-.08.075-.086.069-.088.065-.09.062-.093.061-.095.053-.097.053-.098.045-.103.039-.103.038-.104.032-.105.028-.107.022-.11.018-.108.012-.11.01-.107.003h-.11l-.109-.007-.108-.011-.11-.015-.107-.023-.105-.023-.108-.031-.102-.032-.103-.04-.1-.045-.1-.047-.095-.053-.092-.055-.093-.063-.087-.063-.085-.07-.083-.072-.08-.076-.075-.08-.072-.082-.067-.085-.065-.087-.06-.092-.058-.094-.052-.098-.047-.098-.042-.1-.04-.103-.035-.104-.03-.105-.025-.104-.02-.108-.015-.109-.012-.107-.012-.19-.015-.185-.015-.186-.018-.184-.016-.188-.018-.184-.035-.375-.037-.373-.038-.372-.041-.375-.04-.375-.04-.375-.043-.378-.087-.756-.085-.764-.043-.382-.042-.384-.043-.387-.042-.385-.041-.388-.04-.39-.038-.393-.035-.391-.017-.197-.018-.197-.018-.2-.016-.198-.015-.199-.015-.197-.015-.199-.012-.201-.012-.2-.013-.202-.012-.199-.01-.203-.01-.203-.01-.205-.01-.202-.007-.202-.005-.205-.007-.205-.005-.205-.002-.2v-.11l.005-.106.01-.11.015-.107.02-.11.023-.104.03-.107.032-.104.041-.102.042-.104.047-.098.051-.097.054-.093.061-.092.065-.09.067-.086.073-.082.075-.08.078-.078.083-.072.085-.07.087-.064.09-.06.092-.058.097-.053.098-.051.1-.044.103-.04.103-.035.105-.03.107-.026.105-.021.11-.018.107-.011.11-.007.11-.003.103-.003z"/>
  <path opacity=".15" fill="#5E81AC" d="M509.311 237.46s-3.844 19.209-26.736 18.09-24.494-24.495-24.494-24.495l51.23 6.405z"/>
  <path fill="#ECEFF4" stroke="#4C566A" stroke-width="5" stroke-linecap="round" stroke-linejoin="round" stroke-miterlimit="1.5" d="M489.061 191.497c-15.313-2.182-29.518 8.48-31.697 23.795-2.184 15.314 8.479 29.518 23.795 31.7 15.314 2.18 29.518-8.481 31.699-23.798 2.179-15.312-8.483-29.516-23.797-31.697z"/>
  <path fill="#4C566A" d="M474.229 226.915a6.466 6.466 0 00-1.827 12.803c3.535.502 6.811-1.957 7.314-5.49s-1.956-6.811-5.487-7.313z"/>
  <path fill="#ECEFF4" d="M471.008 233.407a1.814 1.814 0 10-.51 3.592c.99.144 1.91-.547 2.053-1.539a1.82 1.82 0 00-1.543-2.053z"/>
  <path opacity=".15" fill="#5E81AC" d="M411.395 247.225s-3.842 19.21-26.734 18.09-24.493-24.492-24.493-24.492l51.227 6.402z"/>
  <path fill="#ECEFF4" stroke="#4C566A" stroke-width="5" stroke-linecap="round" stroke-linejoin="round" stroke-miterlimit="1.5" d="M390.277 199.704c-15.315-2.182-29.52 8.48-31.7 23.795-2.18 15.316 8.482 29.518 23.795 31.701 15.314 2.18 29.52-8.482 31.7-23.797 2.183-15.313-8.482-29.519-23.795-31.699z"/>
  <path fill="#4C566A" d="M401.17 233.278a6.256 6.256 0 00-7.075 5.312 6.26 6.26 0 005.312 7.077 6.257 6.257 0 001.763-12.389z"/>
  <path fill="#ECEFF4" d="M403.18 238.728a1.758 1.758 0 00-.497 3.48 1.757 1.757 0 10.497-3.48z"/>
  <path fill="#D8DEE9" d="M568.453 239.228a19.688 19.688 0 00-16.334 8.696l-4.127 6.135 1.355 8.517-6.074-1.503-10.988 16.336a11.99 11.99 0 00.305 13.822l6.912 9.358 13.559-7.711a12.002 12.002 0 005.814-7.969l1.9-9.072-5.02-2.34s3.018-1.332 6.068-2.657l6.63-31.612z"/>
  <path fill="#5E81AC" d="M550 316.211v-1.056h-23.027v1.056a8.732 8.732 0 01-5.623 8.161 8.74 8.74 0 00-5.623 8.162v2.386c0 6.063 4.912 10.977 10.975 10.979h23.565c6.063 0 10.977-4.915 10.979-10.978v-2.385a8.74 8.74 0 00-5.623-8.162 8.73 8.73 0 01-5.623-8.163zm1.717-1.056h-26.463a4.038 4.038 0 010-8.077h26.463a4.038 4.038 0 110 8.077z"/>
  <g fill="#4C566A">
    <path d="M536.184 271.608a1.504 1.504 0 002.084-.408l1.51-2.244a1.501 1.501 0 00-2.485-1.676l-1.512 2.246a1.5 1.5 0 00.403 2.082z"/>
    <path d="M569.617 238.282a1.496 1.496 0 00-1.164-.554 21.15 21.15 0 00-17.576 9.358l-4.129 6.137a1.503 1.503 0 00-.236 1.072l1 6.283-3.879-.959a1.499 1.499 0 00-1.816 1.096 1.497 1.497 0 001.098 1.816l6.072 1.5a1.499 1.499 0 001.843-1.69l-1.262-7.936 3.799-5.646a18.15 18.15 0 0113.221-7.938l-6.072 28.96c-2.797 1.219-5.365 2.352-5.365 2.352a1.498 1.498 0 00-.028 2.732l3.941 1.837-1.658 7.908a10.503 10.503 0 01-5.086 6.972l-10.658 6.056a124.68 124.68 0 016.684-20.658 1.5 1.5 0 10-2.764-1.166 127.705 127.705 0 00-6.855 21.205l-4.934-6.684a10.52 10.52 0 01-.266-12.094 1.5 1.5 0 00-2.491-1.671 13.523 13.523 0 00.344 15.551l6.521 8.825a84.212 84.212 0 00-.754 4.626h-11.895a5.538 5.538 0 000 11.077h.184a7.263 7.263 0 01-4.621 6.319 10.294 10.294 0 00-6.59 9.563v2.387c.006 6.889 5.588 12.473 12.477 12.48h23.563c6.887-.008 12.467-5.589 12.477-12.477a1.5 1.5 0 00-3 0 9.49 9.49 0 01-9.475 9.479h-23.561a9.488 9.488 0 01-9.48-9.479v-2.385a7.275 7.275 0 014.658-6.762 10.295 10.295 0 006.582-9.121h20.049a10.298 10.298 0 006.58 9.121 1.5 1.5 0 101.069-2.803 7.261 7.261 0 01-4.627-6.318h.186a5.539 5.539 0 000-11.076h-11.545c.135-.965.342-2.332.666-4.027l12.959-7.364a13.506 13.506 0 006.537-8.963l1.902-9.072a1.5 1.5 0 00-.834-1.667l-2.02-.942c.924-.405 1.977-.864 3.031-1.324.445-.193.771-.592.871-1.066l6.629-31.615a1.495 1.495 0 00-.302-1.255zm-15.359 72.835a2.544 2.544 0 01-2.539 2.538h-26.465a2.54 2.54 0 010-5.079h26.463a2.545 2.545 0 012.541 2.541z"/>
  </g>
  <path fill="#EBCB8B" stroke="#4C566A" stroke-width="5" stroke-linecap="round" stroke-linejoin="round" stroke-miterlimit="1.5" d="M510.488 350.949s-37.617 3.52-56.746-8.143c-19.127-11.66-10.57-22.393 7.184-17.017 17.754 5.376 34.867 9.527 47.271 6.144 12.405-3.378 26.11 16.949 2.291 19.016h0z"/>
</svg>
